<svg xmlns="http://www.w3.org/2000/svg" xmlns:xlink="http://www.w3.org/1999/xlink" width="151" zoomAndPan="magnify" viewBox="0 0 113.25 56.999997" height="76" preserveAspectRatio="xMidYMid meet" version="1.0"><defs><g/><clipPath id="4be14e9c46"><path d="M 0 0.1875 L 112.503906 0.1875 L 112.503906 56.8125 L 0 56.8125 Z M 0 0.1875 " clip-rule="nonzero"/></clipPath><clipPath id="f0a59a3912"><path d="M 0.714844 0.1875 L 112.503906 0.1875 L 112.503906 56.8125 L 0.714844 56.8125 Z M 0.714844 0.1875 " clip-rule="nonzero"/></clipPath><clipPath id="410229d7fd"><path d="M 0.714844 0.1875 L 112.503906 0.1875 L 112.503906 47 L 0.714844 47 Z M 0.714844 0.1875 " clip-rule="nonzero"/></clipPath><clipPath id="938a907639"><path d="M 63 0.1875 L 90 0.1875 L 90 30 L 63 30 Z M 63 0.1875 " clip-rule="nonzero"/></clipPath><clipPath id="47bceccdda"><rect x="0" width="113" y="0" height="47"/></clipPath><clipPath id="6bee3daf9c"><path d="M 0.714844 15 L 111 15 L 111 56.8125 L 0.714844 56.8125 Z M 0.714844 15 " clip-rule="nonzero"/></clipPath><clipPath id="1c11587531"><rect x="0" width="111" y="0" height="42"/></clipPath><clipPath id="bd14bfdc3e"><rect x="0" width="113" y="0" height="57"/></clipPath><clipPath id="c4d3c4f0c6"><rect x="0" width="113" y="0" height="57"/></clipPath></defs><g clip-path="url(#4be14e9c46)"><g transform="matrix(1, 0, 0, 1, 0, 0.000000000000003719)"><g clip-path="url(#c4d3c4f0c6)"><g clip-path="url(#f0a59a3912)"><g transform="matrix(1, 0, 0, 1, 0, 0.000000000000003719)"><g clip-path="url(#bd14bfdc3e)"><g clip-path="url(#410229d7fd)"><g transform="matrix(1, 0, 0, 1, 0, 0.000000000000003719)"><g clip-path="url(#47bceccdda)"><g fill="#7c5295" fill-opacity="1"><g transform="translate(9.809729, 29.327649)"><g><path d="M 17.453125 -0.296875 C 15.617188 0.0507812 14.042969 -0.00390625 12.730469 -0.464844 C 11.890625 -0.742188 11.179688 -1.175781 10.59375 -1.761719 C 9.964844 -2.382812 9.53125 -3.136719 9.289062 -4.015625 L 8.25 -7.597656 L 10.378906 -8.554688 C 10.625 -8.664062 10.835938 -8.921875 11.011719 -9.324219 C 10.980469 -9.253906 10.960938 -9.179688 10.949219 -9.109375 C 10.914062 -8.90625 10.914062 -8.691406 10.957031 -8.464844 C 11 -8.246094 11.078125 -8.03125 11.195312 -7.820312 C 11.375 -7.5 11.621094 -7.230469 11.933594 -7.019531 C 12.242188 -6.808594 12.582031 -6.675781 12.949219 -6.628906 C 13.1875 -6.59375 13.414062 -6.601562 13.636719 -6.640625 L 13.589844 -6.632812 L 13.089844 -9.273438 L 15.308594 -7.761719 C 15.027344 -7.34375 14.65625 -7.03125 14.195312 -6.816406 C 13.984375 -6.722656 13.765625 -6.652344 13.535156 -6.609375 L 13.035156 -9.246094 L 15.628906 -8.5625 C 15.292969 -7.273438 14.691406 -6.21875 13.828125 -5.398438 C 12.949219 -4.558594 11.863281 -4.015625 10.558594 -3.769531 C 9.261719 -3.523438 8.0625 -3.613281 6.960938 -4.039062 C 5.890625 -4.449219 4.890625 -5.222656 3.960938 -6.355469 L 6.035156 -8.058594 L 6.535156 -5.421875 L 6.445312 -5.402344 C 6.625 -5.4375 6.800781 -5.496094 6.976562 -5.585938 C 7.277344 -5.734375 7.535156 -5.945312 7.75 -6.214844 C 8.003906 -6.527344 8.167969 -6.882812 8.242188 -7.28125 C 8.296875 -7.566406 8.296875 -7.847656 8.246094 -8.121094 C 8.207031 -8.328125 8.140625 -8.515625 8.046875 -8.683594 C 7.996094 -8.773438 7.945312 -8.84375 7.894531 -8.902344 C 8.136719 -8.628906 8.394531 -8.4375 8.667969 -8.328125 L 8.710938 -8.3125 L 8.75 -8.292969 C 8.875 -8.242188 8.980469 -8.21875 9.070312 -8.222656 L 11.558594 -8.402344 L 12.535156 -1.71875 L 11.539062 -0.761719 C 10.804688 -0.0625 9.996094 0.5 9.105469 0.925781 C 8.269531 1.324219 7.125 1.660156 5.679688 1.933594 C 4.046875 2.242188 2.5 2.191406 1.050781 1.78125 C -0.0195312 1.480469 -0.898438 1 -1.589844 0.34375 C -2.378906 -0.40625 -2.875 -1.328125 -3.082031 -2.417969 C -3.347656 -3.808594 -3.710938 -7.167969 -4.175781 -12.488281 C -4.40625 -15.273438 -4.542969 -17.238281 -4.574219 -18.382812 L -4.605469 -19.339844 L -4.023438 -20.097656 C -2.753906 -21.75 -0.785156 -22.828125 1.886719 -23.335938 C 3.800781 -23.699219 5.507812 -23.628906 7.007812 -23.121094 L 8.039062 -22.773438 L 10.210938 -18.582031 L 10.066406 -15.53125 L 10.066406 -15.496094 C 10.070312 -15.574219 10.066406 -15.65625 10.046875 -15.746094 C 10.003906 -15.980469 9.914062 -16.207031 9.78125 -16.425781 C 9.59375 -16.734375 9.339844 -16.984375 9.027344 -17.175781 C 8.753906 -17.339844 8.464844 -17.441406 8.160156 -17.476562 C 7.988281 -17.5 7.824219 -17.496094 7.675781 -17.472656 L 8.109375 -14.824219 L 5.425781 -14.953125 L 5.785156 -22.320312 L 6.722656 -23.078125 C 7.261719 -23.511719 7.945312 -23.921875 8.773438 -24.304688 C 9.597656 -24.6875 10.507812 -24.96875 11.5 -25.160156 C 13.511719 -25.539062 15.167969 -25.433594 16.480469 -24.839844 C 17.289062 -24.476562 17.972656 -23.925781 18.53125 -23.191406 C 19.015625 -22.5625 19.390625 -21.808594 19.65625 -20.933594 L 17.089844 -20.144531 L 19.636719 -20.996094 C 19.714844 -20.769531 19.832031 -20.398438 19.992188 -19.886719 C 22.40625 -12.171875 23.753906 -7.574219 24.035156 -6.089844 L 24.234375 -5.035156 L 23.65625 -4.136719 C 22.988281 -3.09375 22.101562 -2.246094 21 -1.589844 C 19.984375 -0.984375 18.804688 -0.554688 17.453125 -0.296875 Z M 16.453125 -5.574219 C 17.777344 -5.824219 18.671875 -6.3125 19.140625 -7.039062 L 21.398438 -5.589844 L 18.761719 -5.085938 C 18.515625 -6.371094 17.222656 -10.765625 14.871094 -18.277344 C 14.71875 -18.757812 14.613281 -19.097656 14.546875 -19.292969 L 14.523438 -19.355469 C 14.445312 -19.621094 14.359375 -19.8125 14.265625 -19.933594 C 14.253906 -19.953125 14.242188 -19.960938 14.238281 -19.96875 C 14.246094 -19.960938 14.253906 -19.953125 14.265625 -19.949219 C 14.191406 -19.984375 14.046875 -20.003906 13.832031 -20.011719 C 13.472656 -20.027344 13.03125 -19.984375 12.5 -19.882812 C 11.941406 -19.777344 11.449219 -19.625 11.023438 -19.429688 C 10.597656 -19.234375 10.289062 -19.058594 10.097656 -18.902344 L 8.410156 -20.988281 L 11.089844 -20.859375 L 10.683594 -12.523438 L 8.542969 -12.171875 C 8.191406 -12.117188 7.851562 -12.109375 7.519531 -12.148438 C 7.058594 -12.203125 6.628906 -12.347656 6.242188 -12.585938 C 5.8125 -12.847656 5.464844 -13.191406 5.199219 -13.625 C 4.992188 -13.964844 4.851562 -14.339844 4.773438 -14.746094 C 4.703125 -15.117188 4.679688 -15.496094 4.710938 -15.886719 L 7.386719 -15.691406 L 4.707031 -15.816406 L 4.8125 -18.109375 L 7.496094 -17.984375 L 5.109375 -16.75 L 3.769531 -19.34375 L 6.152344 -20.578125 L 5.292969 -18.03125 C 4.683594 -18.238281 3.878906 -18.25 2.886719 -18.058594 C 2.144531 -17.921875 1.539062 -17.726562 1.058594 -17.476562 C 0.695312 -17.285156 0.421875 -17.070312 0.238281 -16.828125 L -1.890625 -18.464844 L 0.792969 -18.542969 C 0.824219 -17.496094 0.949219 -15.632812 1.175781 -12.957031 C 1.625 -7.8125 1.960938 -4.632812 2.191406 -3.417969 C 2.191406 -3.425781 2.183594 -3.441406 2.171875 -3.464844 C 2.152344 -3.5 2.132812 -3.527344 2.109375 -3.550781 C 2.117188 -3.542969 2.136719 -3.53125 2.171875 -3.515625 C 2.257812 -3.46875 2.371094 -3.425781 2.515625 -3.382812 C 3.152344 -3.203125 3.875 -3.1875 4.679688 -3.339844 C 5.671875 -3.53125 6.375 -3.722656 6.796875 -3.921875 C 7.164062 -4.097656 7.507812 -4.339844 7.824219 -4.640625 L 9.679688 -2.703125 L 7.023438 -2.3125 L 6.609375 -5.15625 L 9.265625 -5.546875 L 9.460938 -2.867188 C 8.492188 -2.796875 7.539062 -2.964844 6.609375 -3.371094 L 7.679688 -5.832031 L 6.691406 -3.335938 C 5.625 -3.757812 4.691406 -4.425781 3.882812 -5.332031 C 3.398438 -5.878906 3.09375 -6.472656 2.96875 -7.121094 C 2.894531 -7.511719 2.894531 -7.894531 2.964844 -8.273438 C 3.058594 -8.757812 3.257812 -9.195312 3.570312 -9.582031 C 3.839844 -9.921875 4.175781 -10.1875 4.570312 -10.386719 C 4.84375 -10.523438 5.132812 -10.621094 5.445312 -10.679688 L 7.101562 -10.992188 L 8.109375 -9.761719 C 8.308594 -9.523438 8.488281 -9.335938 8.660156 -9.199219 C 8.757812 -9.121094 8.832031 -9.070312 8.886719 -9.050781 C 9.039062 -8.992188 9.265625 -8.988281 9.558594 -9.046875 C 9.820312 -9.09375 10.007812 -9.175781 10.121094 -9.28125 C 10.25 -9.40625 10.355469 -9.621094 10.4375 -9.929688 L 10.867188 -11.566406 L 12.53125 -11.882812 C 12.332031 -11.84375 12.136719 -11.78125 11.945312 -11.695312 C 11.503906 -11.492188 11.144531 -11.1875 10.871094 -10.78125 L 11.496094 -11.703125 L 12.636719 -11.917969 C 12.984375 -11.984375 13.328125 -11.996094 13.667969 -11.949219 C 14.140625 -11.886719 14.570312 -11.722656 14.957031 -11.457031 C 15.34375 -11.191406 15.652344 -10.855469 15.882812 -10.4375 C 16.050781 -10.140625 16.167969 -9.816406 16.234375 -9.464844 C 16.371094 -8.753906 16.269531 -7.988281 15.929688 -7.167969 C 15.582031 -6.371094 15.136719 -5.683594 14.597656 -5.105469 C 14.019531 -4.484375 13.347656 -4 12.578125 -3.65625 L 11.480469 -6.105469 L 14.058594 -6.855469 L 14.46875 -5.4375 C 14.457031 -5.476562 14.429688 -5.519531 14.382812 -5.566406 C 14.367188 -5.582031 14.355469 -5.589844 14.347656 -5.59375 C 14.375 -5.578125 14.425781 -5.558594 14.5 -5.535156 C 14.660156 -5.476562 14.875 -5.445312 15.144531 -5.441406 C 15.515625 -5.433594 15.953125 -5.476562 16.453125 -5.574219 Z M 16.453125 -5.574219 "/></g></g></g><g fill="#7c5295" fill-opacity="1"><g transform="translate(31.605517, 25.195501)"><g/></g></g><g fill="#7c5295" fill-opacity="1"><g transform="translate(31.05322, 25.40213)"><g><path d="M 5.300781 -22.851562 L 15.542969 -23.773438 L 16.4375 -22.550781 C 16.9375 -21.875 17.324219 -21.128906 17.605469 -20.316406 C 17.867188 -19.550781 18.03125 -18.835938 18.089844 -18.164062 C 18.238281 -16.535156 17.96875 -15.1875 17.289062 -14.121094 C 16.875 -13.476562 16.347656 -12.96875 15.699219 -12.597656 C 15.089844 -12.25 14.414062 -12.039062 13.664062 -11.972656 L 7.5625 -11.425781 C 7.699219 -11.4375 7.839844 -11.46875 7.988281 -11.523438 C 8.269531 -11.625 8.523438 -11.78125 8.753906 -11.996094 C 9.042969 -12.269531 9.253906 -12.597656 9.375 -12.980469 C 9.46875 -13.269531 9.503906 -13.558594 9.476562 -13.851562 L 9.488281 -13.730469 C 9.472656 -13.917969 9.429688 -14.105469 9.363281 -14.296875 C 9.207031 -14.742188 8.945312 -15.121094 8.574219 -15.429688 L 6.855469 -13.371094 L 6.613281 -16.042969 L 15.390625 -16.832031 L 16.28125 -15.570312 C 16.625 -15.085938 16.921875 -14.503906 17.179688 -13.824219 L 17.195312 -13.777344 L 17.210938 -13.726562 C 17.445312 -13.027344 17.589844 -12.371094 17.644531 -11.761719 C 17.800781 -10.027344 17.558594 -8.566406 16.925781 -7.378906 L 16.238281 -6.101562 L 11.511719 -5.675781 C 10.796875 -5.613281 10.203125 -5.546875 9.734375 -5.476562 C 9.355469 -5.421875 9.097656 -5.375 8.960938 -5.332031 C 8.757812 -5.269531 8.605469 -5.214844 8.5 -5.175781 C 8.488281 -5.171875 8.476562 -5.167969 8.472656 -5.164062 C 8.476562 -5.167969 8.480469 -5.167969 8.492188 -5.175781 C 8.585938 -5.21875 8.683594 -5.28125 8.789062 -5.359375 L 7.183594 -7.511719 L 8.902344 -5.449219 C 9.15625 -5.660156 9.355469 -5.921875 9.496094 -6.234375 C 9.660156 -6.605469 9.726562 -6.988281 9.691406 -7.386719 C 9.652344 -7.832031 9.492188 -8.238281 9.214844 -8.597656 C 8.984375 -8.898438 8.707031 -9.121094 8.378906 -9.273438 L 7.257812 -6.832031 L 6.199219 -9.296875 C 6.871094 -9.585938 7.574219 -9.808594 8.3125 -9.96875 L 8.351562 -9.976562 L 8.390625 -9.980469 C 9.222656 -10.136719 10.121094 -10.257812 11.09375 -10.34375 L 16.726562 -10.851562 L 17.628906 -9.792969 C 18.691406 -8.546875 19.304688 -7.03125 19.464844 -5.242188 C 19.546875 -4.316406 19.511719 -3.414062 19.351562 -2.535156 C 19.164062 -1.480469 18.789062 -0.574219 18.226562 0.175781 L 17.511719 1.136719 L 4.980469 2.265625 C 3.101562 2.433594 1.496094 2.074219 0.164062 1.191406 C -0.644531 0.671875 -1.28125 -0.015625 -1.746094 -0.871094 C -2.175781 -1.652344 -2.4375 -2.542969 -2.523438 -3.542969 L -3.816406 -17.933594 C -3.875 -18.59375 -3.75 -19.214844 -3.433594 -19.800781 C -3.191406 -20.246094 -2.855469 -20.636719 -2.421875 -20.96875 C -1.894531 -21.375 -1.199219 -21.703125 -0.332031 -21.960938 C 0.925781 -22.332031 2.804688 -22.628906 5.300781 -22.851562 Z M 5.78125 -17.503906 C 3.636719 -17.3125 2.105469 -17.082031 1.1875 -16.808594 C 1.03125 -16.761719 0.90625 -16.71875 0.816406 -16.679688 C 0.796875 -16.671875 0.785156 -16.664062 0.777344 -16.660156 C 0.800781 -16.671875 0.824219 -16.691406 0.855469 -16.714844 C 1.023438 -16.84375 1.171875 -17.023438 1.292969 -17.246094 C 1.488281 -17.609375 1.566406 -18 1.53125 -18.414062 L 2.824219 -4.023438 C 2.84375 -3.769531 2.890625 -3.578125 2.960938 -3.449219 C 2.992188 -3.390625 3.050781 -3.335938 3.128906 -3.285156 C 3.414062 -3.09375 3.871094 -3.027344 4.5 -3.085938 L 15.835938 -4.101562 L 16.074219 -1.429688 L 13.921875 -3.03125 C 13.9375 -3.054688 13.953125 -3.085938 13.972656 -3.136719 C 14.011719 -3.230469 14.042969 -3.347656 14.070312 -3.488281 C 14.140625 -3.890625 14.15625 -4.316406 14.117188 -4.761719 C 14.058594 -5.414062 13.867188 -5.929688 13.542969 -6.308594 L 15.585938 -8.050781 L 15.828125 -5.378906 L 11.574219 -4.996094 C 10.769531 -4.921875 10.03125 -4.824219 9.363281 -4.703125 L 8.875 -7.34375 L 9.441406 -4.71875 C 9.042969 -4.632812 8.667969 -4.515625 8.320312 -4.363281 L 7.222656 -3.894531 L 6.140625 -4.390625 C 5.664062 -4.609375 5.269531 -4.917969 4.960938 -5.324219 C 4.601562 -5.789062 4.394531 -6.316406 4.34375 -6.90625 C 4.296875 -7.445312 4.382812 -7.960938 4.601562 -8.449219 C 4.800781 -8.882812 5.085938 -9.257812 5.464844 -9.574219 L 5.519531 -9.617188 L 5.578125 -9.664062 C 5.832031 -9.851562 6.15625 -10.023438 6.546875 -10.175781 C 6.769531 -10.265625 7.046875 -10.359375 7.378906 -10.460938 C 8.09375 -10.683594 9.3125 -10.871094 11.03125 -11.023438 L 14.316406 -11.320312 L 14.558594 -8.644531 L 12.191406 -9.914062 C 12.234375 -9.992188 12.265625 -10.117188 12.289062 -10.285156 C 12.328125 -10.554688 12.332031 -10.886719 12.296875 -11.28125 C 12.277344 -11.476562 12.21875 -11.730469 12.117188 -12.035156 L 14.664062 -12.882812 L 12.152344 -11.9375 C 12.058594 -12.183594 11.972656 -12.363281 11.898438 -12.46875 L 14.089844 -14.019531 L 14.328125 -11.347656 L 5.988281 -10.597656 L 5.132812 -11.308594 C 4.742188 -11.636719 4.460938 -12.042969 4.292969 -12.53125 C 4.214844 -12.761719 4.164062 -13 4.140625 -13.25 L 4.128906 -13.371094 C 4.089844 -13.804688 4.136719 -14.226562 4.265625 -14.628906 C 4.425781 -15.125 4.695312 -15.550781 5.074219 -15.90625 C 5.613281 -16.414062 6.28125 -16.699219 7.082031 -16.773438 L 13.183594 -17.320312 C 13.1875 -17.320312 13.191406 -17.320312 13.191406 -17.320312 C 13.183594 -17.320312 13.171875 -17.316406 13.160156 -17.3125 C 13.117188 -17.300781 13.070312 -17.28125 13.023438 -17.253906 C 12.910156 -17.1875 12.824219 -17.109375 12.765625 -17.015625 C 12.746094 -16.984375 12.730469 -16.960938 12.722656 -16.9375 C 12.730469 -16.953125 12.734375 -16.976562 12.738281 -17.011719 C 12.765625 -17.175781 12.769531 -17.402344 12.742188 -17.683594 C 12.722656 -17.917969 12.652344 -18.214844 12.53125 -18.5625 C 12.425781 -18.863281 12.285156 -19.136719 12.109375 -19.375 L 14.273438 -20.964844 L 14.515625 -18.289062 Z M 5.78125 -17.503906 "/></g></g></g><g fill="#7c5295" fill-opacity="1"><g transform="translate(47.898366, 23.889554)"><g/></g></g><g fill="#7c5295" fill-opacity="1"><g transform="translate(47.360051, 23.863188)"><g><path d="M 10.601562 -12.945312 C 10.347656 -13.132812 10.078125 -13.269531 9.78125 -13.355469 C 9.671875 -13.386719 9.5625 -13.410156 9.453125 -13.425781 C 9.414062 -13.429688 9.375 -13.433594 9.339844 -13.4375 C 9 -13.4375 8.671875 -13.355469 8.359375 -13.195312 C 8.023438 -13.019531 7.75 -12.777344 7.546875 -12.472656 C 7.402344 -12.253906 7.308594 -12.039062 7.261719 -11.820312 C 7.253906 -11.777344 7.25 -11.746094 7.246094 -11.714844 C 7.246094 -11.710938 7.246094 -11.707031 7.246094 -11.707031 C 7.246094 -11.710938 7.246094 -11.71875 7.246094 -11.726562 L 7.246094 -12.273438 C 7.246094 -12.304688 7.246094 -12.328125 7.246094 -12.34375 C 7.246094 -12.335938 7.246094 -12.324219 7.25 -12.304688 C 7.277344 -12.132812 7.34375 -11.953125 7.449219 -11.765625 C 7.652344 -11.390625 7.949219 -11.09375 8.328125 -10.882812 C 8.664062 -10.699219 9.011719 -10.605469 9.375 -10.605469 C 9.410156 -10.605469 9.460938 -10.609375 9.527344 -10.621094 C 9.789062 -10.660156 10.050781 -10.753906 10.304688 -10.898438 L 8.972656 -13.230469 L 11.609375 -13.753906 C 11.652344 -13.53125 11.675781 -13.269531 11.675781 -12.96875 L 11.671875 -10.796875 L 8.988281 -10.796875 Z M 6.300781 -9.457031 L 6.304688 -12.972656 C 6.308594 -12.890625 6.324219 -12.800781 6.339844 -12.703125 L 5.964844 -14.601562 L 7.644531 -15.5625 C 8.128906 -15.835938 8.707031 -15.976562 9.378906 -15.976562 C 9.941406 -15.972656 10.457031 -15.84375 10.933594 -15.578125 C 11.457031 -15.289062 11.867188 -14.875 12.15625 -14.34375 C 12.464844 -13.785156 12.617188 -13.09375 12.617188 -12.269531 L 12.617188 -11.722656 C 12.613281 -10.835938 12.414062 -10.09375 12.011719 -9.488281 C 11.703125 -9.027344 11.308594 -8.671875 10.824219 -8.421875 C 10.363281 -8.1875 9.867188 -8.066406 9.335938 -8.066406 C 9.125 -8.066406 8.929688 -8.078125 8.757812 -8.101562 C 8.230469 -8.171875 7.773438 -8.355469 7.375 -8.652344 Z M 18.75 -9.203125 L 22.269531 -5.597656 L 22.121094 -4.328125 C 21.867188 -2.148438 21.125 -0.417969 19.890625 0.867188 C 19.203125 1.585938 18.386719 2.121094 17.445312 2.476562 C 16.574219 2.804688 15.617188 2.96875 14.570312 2.96875 C 12.960938 2.96875 11.53125 2.566406 10.289062 1.761719 C 8.757812 0.789062 7.636719 -0.695312 6.925781 -2.695312 L 6.386719 -4.160156 L 8.910156 -5.085938 L 8.84375 -2.402344 C 8.300781 -2.414062 7.644531 -2.480469 6.882812 -2.601562 L 7.296875 -5.253906 L 9.195312 -3.351562 C 9.433594 -3.59375 9.613281 -3.871094 9.730469 -4.1875 C 9.816406 -4.429688 9.859375 -4.671875 9.859375 -4.917969 C 9.859375 -5.242188 9.796875 -5.554688 9.671875 -5.855469 C 9.5625 -6.125 9.40625 -6.363281 9.207031 -6.574219 C 8.984375 -6.808594 8.742188 -6.980469 8.472656 -7.089844 C 8.402344 -7.113281 8.355469 -7.132812 8.328125 -7.136719 C 8.382812 -7.125 8.464844 -7.117188 8.574219 -7.109375 L 10.277344 -7.003906 L 11.957031 -2.753906 L 11.953125 0.445312 L 10.816406 1.246094 C 9.183594 2.390625 7.175781 2.964844 4.785156 2.960938 C 2.921875 2.960938 1.371094 2.53125 0.132812 1.679688 C -0.636719 1.148438 -1.222656 0.484375 -1.621094 -0.320312 C -2.003906 -1.089844 -2.195312 -1.9375 -2.195312 -2.875 L -2.1875 -17.308594 C -2.1875 -17.816406 -2.078125 -18.308594 -1.855469 -18.777344 C -1.683594 -19.148438 -1.445312 -19.496094 -1.140625 -19.8125 C -0.726562 -20.253906 -0.175781 -20.648438 0.507812 -20.996094 C 1.554688 -21.53125 2.863281 -21.953125 4.441406 -22.257812 C 5.9375 -22.546875 7.4375 -22.691406 8.933594 -22.691406 C 12.558594 -22.6875 15.457031 -21.894531 17.640625 -20.300781 C 18.898438 -19.390625 19.851562 -18.273438 20.496094 -16.953125 C 21.128906 -15.660156 21.445312 -14.214844 21.445312 -12.613281 C 21.445312 -11.648438 21.304688 -10.738281 21.023438 -9.882812 C 20.730469 -9 20.296875 -8.195312 19.714844 -7.460938 C 18.613281 -6.066406 17.21875 -5.101562 15.535156 -4.5625 L 14.714844 -7.117188 L 17.398438 -7.113281 C 17.398438 -7.378906 17.347656 -7.640625 17.242188 -7.902344 C 17.097656 -8.261719 16.878906 -8.566406 16.578125 -8.816406 C 16.332031 -9.019531 16.058594 -9.164062 15.761719 -9.246094 C 15.601562 -9.292969 15.445312 -9.316406 15.300781 -9.316406 C 15.171875 -9.316406 15.050781 -9.300781 14.941406 -9.273438 C 14.902344 -9.261719 14.875 -9.253906 14.859375 -9.246094 C 14.941406 -9.285156 15.066406 -9.363281 15.230469 -9.484375 L 17.113281 -10.878906 Z M 14.90625 -5.453125 L 16.828125 -7.328125 L 18.425781 -5.171875 C 17.960938 -4.828125 17.515625 -4.558594 17.089844 -4.363281 C 16.480469 -4.085938 15.882812 -3.945312 15.296875 -3.945312 C 14.957031 -3.945312 14.632812 -3.988281 14.324219 -4.074219 C 13.882812 -4.195312 13.488281 -4.402344 13.144531 -4.6875 C 12.746094 -5.019531 12.449219 -5.425781 12.257812 -5.90625 C 12.105469 -6.289062 12.03125 -6.691406 12.03125 -7.117188 L 12.03125 -9.074219 L 13.894531 -9.671875 C 14.539062 -9.878906 15.078125 -10.253906 15.503906 -10.792969 C 15.691406 -11.03125 15.832031 -11.285156 15.921875 -11.566406 C 16.023438 -11.875 16.074219 -12.226562 16.074219 -12.617188 C 16.074219 -13.386719 15.941406 -14.046875 15.675781 -14.59375 C 15.421875 -15.113281 15.023438 -15.570312 14.476562 -15.964844 C 13.238281 -16.867188 11.386719 -17.320312 8.933594 -17.320312 C 7.777344 -17.324219 6.621094 -17.210938 5.464844 -16.988281 C 4.382812 -16.777344 3.546875 -16.519531 2.953125 -16.214844 C 2.851562 -16.164062 2.777344 -16.121094 2.71875 -16.082031 C 2.710938 -16.078125 2.707031 -16.074219 2.703125 -16.070312 C 2.71875 -16.082031 2.734375 -16.097656 2.753906 -16.117188 C 2.851562 -16.222656 2.933594 -16.347656 3.007812 -16.503906 C 3.125 -16.753906 3.183594 -17.019531 3.183594 -17.304688 L 3.171875 -2.871094 C 3.171875 -2.804688 3.175781 -2.753906 3.183594 -2.714844 C 3.1875 -2.710938 3.1875 -2.707031 3.1875 -2.703125 C 3.1875 -2.707031 3.183594 -2.710938 3.183594 -2.71875 C 3.171875 -2.734375 3.164062 -2.75 3.152344 -2.761719 C 3.160156 -2.757812 3.167969 -2.75 3.179688 -2.742188 C 3.308594 -2.652344 3.480469 -2.582031 3.695312 -2.523438 C 3.996094 -2.449219 4.363281 -2.410156 4.789062 -2.40625 C 6.042969 -2.40625 7.023438 -2.652344 7.726562 -3.148438 L 9.269531 -0.949219 L 6.585938 -0.953125 L 6.585938 -2.246094 L 9.269531 -2.242188 L 6.773438 -1.257812 L 5.910156 -3.445312 L 8.40625 -4.429688 L 8.238281 -1.75 C 7.546875 -1.796875 6.964844 -1.910156 6.496094 -2.09375 C 6.019531 -2.28125 5.621094 -2.550781 5.296875 -2.894531 C 5.046875 -3.160156 4.855469 -3.457031 4.714844 -3.789062 C 4.566406 -4.148438 4.492188 -4.527344 4.492188 -4.921875 C 4.492188 -5.308594 4.554688 -5.675781 4.683594 -6.027344 C 4.839844 -6.457031 5.078125 -6.832031 5.402344 -7.152344 L 6.367188 -8.117188 L 7.714844 -7.90625 C 8.246094 -7.820312 8.667969 -7.777344 8.972656 -7.769531 L 10.800781 -7.722656 L 11.984375 -4.496094 C 12.28125 -3.65625 12.6875 -3.074219 13.203125 -2.746094 C 13.5625 -2.515625 14.019531 -2.402344 14.574219 -2.402344 C 14.96875 -2.402344 15.292969 -2.449219 15.550781 -2.546875 C 15.734375 -2.617188 15.890625 -2.71875 16.015625 -2.851562 C 16.417969 -3.265625 16.671875 -3.964844 16.785156 -4.945312 L 19.453125 -4.636719 L 17.53125 -2.761719 Z M 14.90625 -5.453125 "/></g></g></g><g fill="#7c5295" fill-opacity="1"><g transform="translate(66.507077, 23.876221)"><g/></g></g><g clip-path="url(#938a907639)"><g fill="#7c5295" fill-opacity="1"><g transform="translate(65.953998, 23.846299)"><g><path d="M 11.128906 -7.691406 C 10.71875 -7.730469 10.328125 -7.660156 9.953125 -7.472656 L 11.148438 -5.070312 L 8.476562 -5.328125 L 8.75 -8.125 L 10 -8.804688 C 11.019531 -9.359375 12.324219 -9.742188 13.910156 -9.960938 C 15.382812 -10.160156 16.804688 -10.195312 18.183594 -10.058594 L 19.304688 -9.953125 L 20.011719 -9.074219 C 20.757812 -8.15625 21.300781 -6.933594 21.644531 -5.40625 C 21.957031 -4.027344 22.070312 -2.765625 21.984375 -1.621094 L 21.933594 -0.957031 L 21.582031 -0.390625 C 21.175781 0.25 20.59375 0.875 19.832031 1.484375 C 19.136719 2.035156 18.335938 2.523438 17.421875 2.941406 C 15.21875 3.96875 12.792969 4.351562 10.136719 4.09375 C 8.265625 3.914062 6.597656 3.46875 5.128906 2.757812 C 3.59375 2.015625 2.296875 0.996094 1.242188 -0.304688 C 0.164062 -1.597656 -0.59375 -3.09375 -1.035156 -4.792969 C -1.453125 -6.40625 -1.566406 -8.179688 -1.378906 -10.109375 C -1.1875 -12.066406 -0.703125 -13.808594 0.0820312 -15.332031 C 0.898438 -16.917969 2.019531 -18.25 3.445312 -19.320312 C 4.695312 -20.277344 6.109375 -20.953125 7.691406 -21.34375 C 9.210938 -21.722656 10.773438 -21.835938 12.382812 -21.679688 C 15.519531 -21.371094 18.0625 -20.324219 20.011719 -18.527344 C 21.050781 -17.566406 21.8125 -16.507812 22.292969 -15.347656 C 22.796875 -14.132812 22.984375 -12.855469 22.855469 -11.503906 C 22.753906 -10.46875 22.488281 -9.550781 22.0625 -8.753906 C 21.582031 -7.855469 20.917969 -7.136719 20.066406 -6.601562 C 18.648438 -5.703125 16.917969 -5.351562 14.875 -5.550781 C 13.679688 -5.667969 12.523438 -6.066406 11.414062 -6.75 C 10.878906 -7.078125 10.433594 -7.40625 10.082031 -7.738281 C 9.53125 -8.253906 9.152344 -8.820312 8.953125 -9.429688 L 8.773438 -9.96875 L 8.828125 -10.53125 C 8.914062 -11.414062 9 -12.121094 9.085938 -12.648438 L 11.738281 -12.21875 L 10.308594 -9.945312 C 10.648438 -9.730469 11.003906 -9.609375 11.371094 -9.570312 L 11.265625 -9.582031 C 11.503906 -9.558594 11.742188 -9.578125 11.984375 -9.640625 C 12.3125 -9.722656 12.605469 -9.871094 12.863281 -10.085938 C 13.085938 -10.269531 13.257812 -10.472656 13.378906 -10.695312 C 13.398438 -10.726562 13.410156 -10.757812 13.421875 -10.78125 C 13.421875 -10.785156 13.421875 -10.785156 13.421875 -10.785156 C 13.421875 -10.78125 13.417969 -10.773438 13.417969 -10.765625 C 13.433594 -10.808594 13.441406 -10.847656 13.449219 -10.878906 C 13.449219 -10.871094 13.445312 -10.859375 13.441406 -10.839844 C 13.425781 -10.761719 13.410156 -10.652344 13.390625 -10.515625 C 13.34375 -10.183594 13.292969 -9.738281 13.238281 -9.171875 C 13.113281 -7.871094 13.070312 -6.929688 13.109375 -6.34375 C 13.113281 -6.253906 13.121094 -6.1875 13.128906 -6.140625 C 13.125 -6.171875 13.109375 -6.222656 13.082031 -6.289062 C 12.988281 -6.53125 12.839844 -6.757812 12.640625 -6.96875 C 12.457031 -7.15625 12.25 -7.308594 12.015625 -7.433594 C 11.734375 -7.574219 11.441406 -7.664062 11.128906 -7.691406 Z M 10.609375 -2.347656 C 10.238281 -2.382812 9.886719 -2.488281 9.554688 -2.660156 C 9.261719 -2.808594 9.003906 -3.003906 8.773438 -3.242188 C 8.472656 -3.550781 8.242188 -3.921875 8.074219 -4.355469 C 7.902344 -4.796875 7.796875 -5.335938 7.753906 -5.972656 C 7.691406 -6.855469 7.738281 -8.097656 7.894531 -9.691406 C 7.957031 -10.335938 8.015625 -10.863281 8.074219 -11.269531 C 8.152344 -11.808594 8.242188 -12.226562 8.34375 -12.523438 C 8.597656 -13.265625 8.96875 -13.835938 9.453125 -14.234375 C 9.808594 -14.523438 10.210938 -14.730469 10.65625 -14.84375 C 11.023438 -14.9375 11.398438 -14.964844 11.785156 -14.925781 L 11.890625 -14.917969 C 12.363281 -14.871094 12.789062 -14.730469 13.164062 -14.492188 L 14.671875 -13.546875 L 14.386719 -11.789062 C 14.320312 -11.375 14.25 -10.78125 14.175781 -10.011719 L 11.503906 -10.273438 L 14.050781 -11.113281 C 13.996094 -11.285156 13.917969 -11.4375 13.824219 -11.566406 C 13.796875 -11.609375 13.773438 -11.636719 13.757812 -11.652344 C 13.84375 -11.570312 13.996094 -11.460938 14.222656 -11.324219 C 14.628906 -11.074219 15.019531 -10.933594 15.394531 -10.894531 C 16.214844 -10.816406 16.816406 -10.898438 17.199219 -11.136719 C 17.359375 -11.238281 17.460938 -11.535156 17.507812 -12.023438 C 17.554688 -12.480469 17.496094 -12.898438 17.335938 -13.285156 C 17.15625 -13.71875 16.832031 -14.152344 16.367188 -14.582031 C 15.304688 -15.558594 13.804688 -16.144531 11.863281 -16.332031 C 10.867188 -16.429688 9.910156 -16.363281 8.988281 -16.132812 C 8.128906 -15.921875 7.355469 -15.550781 6.671875 -15.027344 C 5.902344 -14.449219 5.296875 -13.734375 4.859375 -12.878906 C 4.386719 -11.960938 4.089844 -10.867188 3.964844 -9.59375 C 3.839844 -8.292969 3.90625 -7.140625 4.164062 -6.136719 C 4.402344 -5.214844 4.816406 -4.402344 5.40625 -3.691406 C 5.960938 -3.011719 6.648438 -2.472656 7.46875 -2.074219 C 8.359375 -1.644531 9.421875 -1.371094 10.65625 -1.25 C 12.335938 -1.085938 13.847656 -1.316406 15.183594 -1.941406 C 15.699219 -2.175781 16.132812 -2.4375 16.488281 -2.71875 C 16.652344 -2.851562 16.789062 -2.972656 16.898438 -3.085938 C 16.964844 -3.152344 17.007812 -3.207031 17.03125 -3.246094 L 19.308594 -1.820312 L 16.628906 -2.015625 C 16.675781 -2.628906 16.601562 -3.367188 16.40625 -4.222656 C 16.316406 -4.625 16.210938 -4.964844 16.09375 -5.242188 C 16.007812 -5.441406 15.921875 -5.597656 15.835938 -5.703125 L 17.925781 -7.386719 L 17.664062 -4.714844 C 16.703125 -4.808594 15.695312 -4.785156 14.636719 -4.640625 C 13.699219 -4.511719 13.007812 -4.328125 12.566406 -4.085938 L 11.28125 -6.445312 L 13.957031 -6.1875 L 13.675781 -3.328125 L 12.34375 -2.664062 C 11.800781 -2.394531 11.222656 -2.289062 10.609375 -2.347656 Z M 10.609375 -2.347656 "/></g></g></g></g><g fill="#7c5295" fill-opacity="1"><g transform="translate(85.132877, 25.709908)"><g/></g></g><g fill="#7c5295" fill-opacity="1"><g transform="translate(84.580296, 25.621784)"><g><path d="M 24.421875 -11.617188 L 21.253906 4.519531 L 20.042969 5.105469 C 18.226562 5.980469 16.160156 6.1875 13.832031 5.734375 C 11.941406 5.359375 10.460938 4.621094 9.390625 3.515625 C 8.726562 2.851562 8.265625 2.074219 8.011719 1.1875 C 7.765625 0.328125 7.738281 -0.574219 7.925781 -1.523438 L 9.023438 -7.113281 L 12.714844 -6.386719 C 12.746094 -6.378906 12.769531 -6.375 12.785156 -6.375 C 12.761719 -6.375 12.726562 -6.378906 12.683594 -6.378906 C 12.5625 -6.378906 12.433594 -6.363281 12.300781 -6.332031 C 12.015625 -6.269531 11.75 -6.15625 11.5 -5.984375 C 11.191406 -5.777344 10.953125 -5.519531 10.785156 -5.203125 C 10.703125 -5.050781 10.648438 -4.902344 10.617188 -4.757812 L 13.253906 -4.242188 L 12.734375 -1.605469 L 8.054688 -2.527344 L 8.570312 -5.160156 L 11.207031 -4.644531 C 11.226562 -4.75 11.234375 -4.871094 11.222656 -5.011719 C 11.203125 -5.332031 11.109375 -5.644531 10.941406 -5.941406 C 10.785156 -6.214844 10.589844 -6.445312 10.351562 -6.636719 C 10.21875 -6.742188 10.078125 -6.828125 9.9375 -6.894531 C 9.871094 -6.925781 9.808594 -6.949219 9.75 -6.964844 C 9.738281 -6.96875 9.730469 -6.972656 9.722656 -6.972656 C 9.722656 -6.972656 9.726562 -6.972656 9.730469 -6.972656 L 13.5 -6.230469 L 11.730469 2.769531 L 10.378906 3.3125 C 9.234375 3.769531 8.152344 4.023438 7.132812 4.074219 C 6.195312 4.117188 5.265625 4.050781 4.335938 3.867188 C 2.441406 3.496094 0.960938 2.757812 -0.105469 1.652344 C -0.769531 0.984375 -1.230469 0.207031 -1.484375 -0.679688 C -1.730469 -1.535156 -1.761719 -2.441406 -1.574219 -3.390625 L 1.546875 -19.277344 L 2.417969 -19.894531 C 3.371094 -20.578125 4.457031 -21.023438 5.671875 -21.238281 C 6.820312 -21.4375 7.96875 -21.425781 9.121094 -21.199219 C 10.886719 -20.851562 12.324219 -20.089844 13.4375 -18.914062 C 14.140625 -18.136719 14.617188 -17.277344 14.859375 -16.34375 C 15.101562 -15.4375 15.121094 -14.484375 14.925781 -13.484375 L 14.402344 -10.828125 L 11.769531 -11.347656 L 12.285156 -13.980469 L 14.179688 -13.609375 L 13.664062 -10.976562 L 11.027344 -11.492188 C 11.007812 -11.390625 11.003906 -11.269531 11.011719 -11.125 C 11.039062 -10.742188 11.167969 -10.378906 11.394531 -10.035156 C 11.605469 -9.726562 11.867188 -9.484375 12.183594 -9.3125 C 12.351562 -9.222656 12.515625 -9.160156 12.679688 -9.128906 L 9.539062 -9.746094 L 11.042969 -17.410156 L 11.914062 -18.03125 C 12.867188 -18.710938 13.953125 -19.15625 15.171875 -19.371094 C 16.316406 -19.574219 17.46875 -19.5625 18.617188 -19.335938 C 20.382812 -18.988281 21.824219 -18.226562 22.933594 -17.046875 C 23.640625 -16.269531 24.113281 -15.414062 24.359375 -14.480469 C 24.597656 -13.570312 24.621094 -12.617188 24.421875 -11.617188 Z M 19.152344 -12.652344 C 19.191406 -12.847656 19.195312 -13 19.167969 -13.113281 C 19.140625 -13.203125 19.097656 -13.285156 19.03125 -13.363281 C 18.707031 -13.707031 18.222656 -13.941406 17.582031 -14.066406 C 17.085938 -14.164062 16.589844 -14.167969 16.101562 -14.082031 C 15.683594 -14.007812 15.324219 -13.867188 15.03125 -13.65625 L 13.472656 -15.84375 L 16.109375 -15.328125 L 15.324219 -11.34375 L 12.691406 -11.863281 L 13.207031 -14.496094 L 13.714844 -14.398438 C 14.085938 -14.324219 14.429688 -14.203125 14.738281 -14.035156 C 15.199219 -13.789062 15.570312 -13.453125 15.855469 -13.027344 C 16.34375 -12.300781 16.492188 -11.441406 16.296875 -10.457031 L 15.78125 -7.824219 L 8.617188 -9.230469 L 9.65625 -14.519531 C 9.695312 -14.710938 9.699219 -14.867188 9.667969 -14.980469 C 9.644531 -15.070312 9.597656 -15.152344 9.53125 -15.226562 C 9.207031 -15.570312 8.726562 -15.804688 8.085938 -15.929688 C 7.585938 -16.03125 7.09375 -16.035156 6.601562 -15.949219 C 6.183594 -15.875 5.828125 -15.734375 5.535156 -15.523438 L 3.976562 -17.710938 L 6.609375 -17.191406 L 3.695312 -2.355469 C 3.679688 -2.285156 3.675781 -2.226562 3.675781 -2.179688 C 3.675781 -2.171875 3.675781 -2.164062 3.675781 -2.15625 L 3.675781 -2.160156 C 3.675781 -2.167969 3.671875 -2.171875 3.671875 -2.175781 C 3.679688 -2.15625 3.707031 -2.125 3.753906 -2.082031 C 3.867188 -1.960938 4.03125 -1.851562 4.246094 -1.75 C 4.546875 -1.605469 4.921875 -1.492188 5.371094 -1.402344 C 5.875 -1.304688 6.375 -1.265625 6.878906 -1.289062 C 7.292969 -1.308594 7.796875 -1.4375 8.378906 -1.671875 L 9.378906 0.820312 L 6.742188 0.304688 L 7.714844 -4.632812 L 10.347656 -4.113281 L 9.832031 -1.480469 L 8.699219 -1.703125 C 7.550781 -1.929688 6.742188 -2.460938 6.265625 -3.296875 C 5.871094 -3.996094 5.761719 -4.789062 5.9375 -5.679688 L 6.453125 -8.3125 L 16.40625 -6.359375 L 15.886719 -3.722656 C 15.8125 -3.34375 15.691406 -2.996094 15.523438 -2.679688 C 15.269531 -2.203125 14.925781 -1.820312 14.492188 -1.527344 C 13.984375 -1.1875 13.394531 -1.011719 12.722656 -1.007812 C 12.40625 -1.007812 12.058594 -1.042969 11.679688 -1.117188 L 10.621094 -1.324219 L 11.136719 -3.960938 L 13.773438 -3.441406 L 13.191406 -0.488281 C 13.179688 -0.417969 13.171875 -0.359375 13.171875 -0.3125 C 13.171875 -0.304688 13.175781 -0.296875 13.175781 -0.289062 L 13.175781 -0.292969 C 13.171875 -0.300781 13.171875 -0.304688 13.167969 -0.308594 C 13.179688 -0.292969 13.207031 -0.261719 13.25 -0.214844 C 13.367188 -0.0976562 13.53125 0.015625 13.746094 0.117188 C 14.046875 0.257812 14.417969 0.375 14.867188 0.464844 C 16.023438 0.691406 16.96875 0.625 17.710938 0.269531 L 18.875 2.6875 L 16.242188 2.167969 Z M 19.152344 -12.652344 "/></g></g></g><g fill="#7c5295" fill-opacity="1"><g transform="translate(103.744956, 29.386952)"><g/></g></g><g fill="#ffffff" fill-opacity="1"><g transform="translate(9.809729, 29.327649)"><g><path d="M 16.953125 -2.921875 C 15.585938 -2.660156 14.472656 -2.6875 13.609375 -3 C 12.691406 -3.3125 12.113281 -3.890625 11.875 -4.734375 L 11.484375 -6.109375 C 12.359375 -6.492188 13.015625 -7.207031 13.453125 -8.25 C 13.585938 -8.53125 13.632812 -8.769531 13.59375 -8.96875 C 13.539062 -9.226562 13.390625 -9.335938 13.140625 -9.296875 L 13.09375 -9.28125 C 13.09375 -9.269531 13.078125 -9.257812 13.046875 -9.25 C 12.617188 -7.65625 11.625 -6.707031 10.0625 -6.40625 C 9.257812 -6.257812 8.546875 -6.304688 7.921875 -6.546875 C 7.296875 -6.785156 6.671875 -7.289062 6.046875 -8.0625 L 5.953125 -8.046875 C 5.679688 -7.992188 5.566406 -7.851562 5.609375 -7.625 C 5.640625 -7.46875 5.734375 -7.296875 5.890625 -7.109375 C 6.410156 -6.523438 7.003906 -6.097656 7.671875 -5.828125 C 8.210938 -5.597656 8.75 -5.503906 9.28125 -5.546875 L 9.6875 -2.6875 C 9.164062 -2.207031 8.585938 -1.8125 7.953125 -1.5 C 7.316406 -1.1875 6.390625 -0.914062 5.171875 -0.6875 C 3.953125 -0.457031 2.828125 -0.492188 1.796875 -0.796875 C 0.503906 -1.160156 -0.238281 -1.867188 -0.4375 -2.921875 C -0.6875 -4.210938 -1.039062 -7.484375 -1.5 -12.734375 C -1.71875 -15.460938 -1.851562 -17.375 -1.90625 -18.46875 C -1.050781 -19.570312 0.378906 -20.316406 2.390625 -20.703125 C 3.847656 -20.972656 5.101562 -20.9375 6.15625 -20.59375 L 7.5 -18 L 7.40625 -15.6875 C 7.382812 -15.539062 7.390625 -15.398438 7.421875 -15.265625 C 7.484375 -14.898438 7.710938 -14.753906 8.109375 -14.828125 L 8.40625 -21 C 8.78125 -21.289062 9.273438 -21.578125 9.890625 -21.859375 C 10.515625 -22.148438 11.21875 -22.375 12 -22.53125 C 13.457031 -22.800781 14.582031 -22.753906 15.375 -22.390625 C 16.164062 -22.035156 16.738281 -21.285156 17.09375 -20.140625 C 17.164062 -19.929688 17.28125 -19.582031 17.4375 -19.09375 C 19.8125 -11.46875 21.128906 -6.960938 21.390625 -5.578125 C 20.503906 -4.203125 19.023438 -3.316406 16.953125 -2.921875 Z M 16.953125 -2.921875 "/></g></g></g><g fill="#ffffff" fill-opacity="1"><g transform="translate(31.605517, 25.195501)"><g/></g></g><g fill="#ffffff" fill-opacity="1"><g transform="translate(31.05322, 25.40213)"><g><path d="M 5.546875 -20.1875 L 14.28125 -20.96875 C 14.613281 -20.507812 14.875 -20 15.0625 -19.4375 C 15.257812 -18.882812 15.378906 -18.378906 15.421875 -17.921875 C 15.515625 -16.898438 15.382812 -16.113281 15.03125 -15.5625 C 14.675781 -15.019531 14.140625 -14.71875 13.421875 -14.65625 L 7.328125 -14.109375 C 6.953125 -14.078125 6.78125 -13.914062 6.8125 -13.625 L 6.828125 -13.5 C 6.828125 -13.4375 6.835938 -13.394531 6.859375 -13.375 L 14.078125 -14.015625 C 14.296875 -13.722656 14.492188 -13.34375 14.671875 -12.875 C 14.828125 -12.375 14.925781 -11.921875 14.96875 -11.515625 C 15.070312 -10.316406 14.9375 -9.359375 14.5625 -8.640625 L 11.265625 -8.359375 C 9.742188 -8.210938 8.710938 -8.054688 8.171875 -7.890625 C 7.640625 -7.722656 7.3125 -7.597656 7.1875 -7.515625 C 7.0625 -7.410156 7.003906 -7.285156 7.015625 -7.140625 C 7.023438 -7.003906 7.109375 -6.898438 7.265625 -6.828125 C 7.765625 -7.035156 8.304688 -7.203125 8.890625 -7.328125 C 9.628906 -7.472656 10.441406 -7.585938 11.328125 -7.671875 L 15.59375 -8.046875 C 16.289062 -7.234375 16.691406 -6.21875 16.796875 -5 C 16.859375 -4.3125 16.832031 -3.644531 16.71875 -3 C 16.601562 -2.363281 16.390625 -1.835938 16.078125 -1.421875 L 4.734375 -0.40625 C 3.484375 -0.289062 2.457031 -0.503906 1.65625 -1.046875 C 0.757812 -1.628906 0.257812 -2.539062 0.15625 -3.78125 L -1.140625 -18.171875 C -1.179688 -18.660156 -0.660156 -19.066406 0.421875 -19.390625 C 1.515625 -19.710938 3.222656 -19.976562 5.546875 -20.1875 Z M 5.546875 -20.1875 "/></g></g></g><g fill="#ffffff" fill-opacity="1"><g transform="translate(47.898366, 23.889554)"><g/></g></g><g fill="#ffffff" fill-opacity="1"><g transform="translate(47.360051, 23.863188)"><g><path d="M 8.984375 -10.8125 C 9.023438 -10.78125 9.140625 -10.765625 9.328125 -10.765625 C 9.523438 -10.765625 9.671875 -10.835938 9.765625 -10.984375 C 9.867188 -11.140625 9.925781 -11.390625 9.9375 -11.734375 L 9.9375 -12.28125 C 9.9375 -12.644531 9.894531 -12.90625 9.8125 -13.0625 C 9.726562 -13.21875 9.585938 -13.296875 9.390625 -13.296875 C 9.191406 -13.296875 9.054688 -13.273438 8.984375 -13.234375 C 8.992188 -13.179688 9 -13.097656 9 -12.984375 Z M 16.828125 -7.328125 L 19.453125 -4.640625 C 19.265625 -3.054688 18.765625 -1.835938 17.953125 -0.984375 C 17.140625 -0.128906 16.015625 0.296875 14.578125 0.296875 C 13.492188 0.296875 12.550781 0.0351562 11.75 -0.484375 C 10.726562 -1.140625 9.960938 -2.179688 9.453125 -3.609375 L 8.90625 -5.09375 C 8.476562 -5.101562 7.941406 -5.160156 7.296875 -5.265625 C 7.210938 -5.179688 7.171875 -5.066406 7.171875 -4.921875 C 7.171875 -4.648438 7.582031 -4.488281 8.40625 -4.4375 L 9.265625 -2.25 L 9.265625 -0.953125 C 8.097656 -0.128906 6.601562 0.28125 4.78125 0.28125 C 3.476562 0.28125 2.4375 0.0078125 1.65625 -0.53125 C 0.875 -1.070312 0.484375 -1.851562 0.484375 -2.875 L 0.5 -17.3125 C 0.5 -17.757812 0.910156 -18.191406 1.734375 -18.609375 C 2.554688 -19.023438 3.628906 -19.363281 4.953125 -19.625 C 6.285156 -19.882812 7.613281 -20.015625 8.9375 -20.015625 C 11.976562 -20.003906 14.351562 -19.375 16.0625 -18.125 C 17.863281 -16.820312 18.765625 -14.984375 18.765625 -12.609375 C 18.753906 -11.253906 18.363281 -10.09375 17.59375 -9.125 C 16.832031 -8.15625 15.875 -7.484375 14.71875 -7.109375 C 14.71875 -6.785156 14.910156 -6.625 15.296875 -6.625 C 15.679688 -6.625 16.191406 -6.859375 16.828125 -7.328125 Z M 16.828125 -7.328125 "/></g></g></g><g fill="#ffffff" fill-opacity="1"><g transform="translate(66.507077, 23.876221)"><g/></g></g><g fill="#ffffff" fill-opacity="1"><g transform="translate(65.953998, 23.846299)"><g><path d="M 10.859375 -5.015625 C 10.960938 -5.003906 11.0625 -5.019531 11.15625 -5.0625 L 11.28125 -6.4375 C 12.007812 -6.84375 13.003906 -7.128906 14.265625 -7.296875 C 15.523438 -7.472656 16.742188 -7.503906 17.921875 -7.390625 C 18.410156 -6.796875 18.78125 -5.9375 19.03125 -4.8125 C 19.28125 -3.6875 19.375 -2.6875 19.3125 -1.8125 C 19.0625 -1.425781 18.675781 -1.023438 18.15625 -0.609375 C 17.632812 -0.191406 17.019531 0.175781 16.3125 0.5 C 14.53125 1.320312 12.554688 1.628906 10.390625 1.421875 C 7.285156 1.117188 4.925781 -0.0195312 3.3125 -2 C 1.644531 -4 0.96875 -6.613281 1.28125 -9.84375 C 1.601562 -13.082031 2.863281 -15.523438 5.0625 -17.171875 C 6.039062 -17.910156 7.132812 -18.429688 8.34375 -18.734375 C 9.5625 -19.046875 10.820312 -19.140625 12.125 -19.015625 C 14.664062 -18.765625 16.6875 -17.945312 18.1875 -16.5625 C 19.6875 -15.175781 20.351562 -13.578125 20.1875 -11.765625 C 20.050781 -10.410156 19.53125 -9.445312 18.625 -8.875 C 17.726562 -8.300781 16.566406 -8.085938 15.140625 -8.234375 C 14.347656 -8.304688 13.570312 -8.578125 12.8125 -9.046875 C 12.0625 -9.515625 11.625 -9.925781 11.5 -10.28125 C 11.582031 -11.09375 11.660156 -11.738281 11.734375 -12.21875 C 11.710938 -12.226562 11.675781 -12.238281 11.625 -12.25 L 11.515625 -12.25 C 11.367188 -12.269531 11.25 -12.238281 11.15625 -12.15625 C 11.0625 -12.082031 10.96875 -11.910156 10.875 -11.640625 C 10.789062 -11.378906 10.6875 -10.644531 10.5625 -9.4375 C 10.28125 -6.539062 10.378906 -5.066406 10.859375 -5.015625 Z M 10.859375 -5.015625 "/></g></g></g><g fill="#ffffff" fill-opacity="1"><g transform="translate(85.132877, 25.709908)"><g/></g></g><g fill="#ffffff" fill-opacity="1"><g transform="translate(84.580296, 25.621784)"><g><path d="M 21.796875 -12.140625 L 18.875 2.6875 C 17.601562 3.3125 16.097656 3.453125 14.359375 3.109375 C 13.015625 2.847656 12 2.363281 11.3125 1.65625 C 10.601562 0.9375 10.351562 0.0429688 10.5625 -1.015625 L 11.140625 -3.96875 L 12.1875 -3.75 C 12.601562 -3.664062 12.867188 -3.664062 12.984375 -3.75 C 13.109375 -3.84375 13.195312 -4.007812 13.25 -4.25 L 8.578125 -5.15625 C 8.523438 -4.914062 8.53125 -4.734375 8.59375 -4.609375 C 8.664062 -4.492188 8.867188 -4.40625 9.203125 -4.34375 L 10.34375 -4.125 L 9.375 0.8125 C 8.507812 1.15625 7.71875 1.347656 7 1.390625 C 6.289062 1.429688 5.578125 1.382812 4.859375 1.25 C 3.515625 0.976562 2.503906 0.492188 1.828125 -0.203125 C 1.097656 -0.921875 0.835938 -1.8125 1.046875 -2.875 L 3.96875 -17.703125 C 4.59375 -18.148438 5.316406 -18.441406 6.140625 -18.578125 C 6.960938 -18.722656 7.78125 -18.71875 8.59375 -18.5625 C 9.800781 -18.320312 10.765625 -17.820312 11.484375 -17.0625 C 12.253906 -16.21875 12.523438 -15.203125 12.296875 -14.015625 L 11.765625 -11.359375 L 13.65625 -10.984375 C 13.707031 -11.234375 13.695312 -11.414062 13.625 -11.53125 C 13.550781 -11.644531 13.410156 -11.722656 13.203125 -11.765625 L 12.703125 -11.875 L 13.484375 -15.84375 C 14.097656 -16.289062 14.8125 -16.582031 15.625 -16.71875 C 16.445312 -16.863281 17.273438 -16.859375 18.109375 -16.703125 C 19.304688 -16.460938 20.265625 -15.960938 20.984375 -15.203125 C 21.753906 -14.347656 22.023438 -13.328125 21.796875 -12.140625 Z M 21.796875 -12.140625 "/></g></g></g><g fill="#ffffff" fill-opacity="1"><g transform="translate(103.744956, 29.386952)"><g/></g></g></g></g></g><g clip-path="url(#6bee3daf9c)"><g transform="matrix(1, 0, 0, 1, 0, 15)"><g clip-path="url(#1c11587531)"><g fill="#7c5295" fill-opacity="1"><g transform="translate(9.663802, 35.771476)"><g><path d="M 6.589844 -9.578125 C 6.464844 -9.527344 6.335938 -9.460938 6.210938 -9.371094 C 6.003906 -9.222656 5.828125 -9.039062 5.683594 -8.820312 C 5.503906 -8.558594 5.390625 -8.269531 5.335938 -7.957031 C 5.292969 -7.703125 5.296875 -7.453125 5.339844 -7.210938 C 5.359375 -7.109375 5.386719 -7.023438 5.421875 -6.949219 C 5.429688 -6.941406 5.433594 -6.933594 5.433594 -6.929688 C 5.429688 -6.941406 5.417969 -6.953125 5.40625 -6.972656 C 5.363281 -7.027344 5.277344 -7.09375 5.152344 -7.171875 C 4.695312 -7.449219 4.039062 -7.503906 3.175781 -7.339844 C 2.746094 -7.261719 2.367188 -7.117188 2.042969 -6.917969 L 1.042969 -6.296875 L -0.0898438 -6.625 C -1.378906 -6.996094 -2.476562 -7.742188 -3.378906 -8.855469 C -4.21875 -9.886719 -4.761719 -11.0625 -5.011719 -12.382812 C -5.3125 -13.976562 -5.238281 -15.476562 -4.792969 -16.882812 C -4.34375 -18.292969 -3.535156 -19.558594 -2.367188 -20.679688 C -0.53125 -22.429688 1.855469 -23.585938 4.796875 -24.140625 C 6.867188 -24.535156 8.691406 -24.640625 10.265625 -24.457031 C 11.886719 -24.265625 13.285156 -23.875 14.460938 -23.277344 L 15.167969 -22.921875 L 15.5625 -22.238281 C 16.066406 -21.359375 16.414062 -20.417969 16.605469 -19.414062 C 16.792969 -18.421875 16.828125 -17.480469 16.710938 -16.582031 C 16.574219 -15.53125 16.234375 -14.621094 15.691406 -13.84375 L 14.402344 -12.007812 L 12.378906 -12.976562 C 12.398438 -12.96875 12.410156 -12.964844 12.421875 -12.960938 C 12.417969 -12.960938 12.410156 -12.964844 12.398438 -12.96875 C 12.347656 -12.984375 12.277344 -13 12.191406 -13.019531 C 11.953125 -13.066406 11.644531 -13.109375 11.269531 -13.148438 C 10.578125 -13.214844 9.992188 -13.203125 9.507812 -13.109375 C 9.21875 -13.054688 8.996094 -13.007812 8.832031 -12.960938 C 8.789062 -12.945312 8.761719 -12.9375 8.746094 -12.933594 C 8.796875 -12.953125 8.859375 -12.984375 8.929688 -13.027344 C 9.203125 -13.191406 9.429688 -13.425781 9.609375 -13.730469 C 9.75 -13.96875 9.84375 -14.226562 9.890625 -14.503906 C 9.9375 -14.769531 9.933594 -15.035156 9.882812 -15.300781 C 9.839844 -15.523438 9.761719 -15.734375 9.640625 -15.933594 L 7.375 -14.558594 L 6.25 -16.957031 C 6.785156 -17.207031 7.441406 -17.40625 8.210938 -17.554688 C 10.746094 -18.035156 12.980469 -17.800781 14.917969 -16.851562 C 16.171875 -16.230469 17.1875 -15.351562 17.96875 -14.214844 C 18.699219 -13.148438 19.203125 -11.882812 19.480469 -10.414062 C 19.742188 -9.039062 19.699219 -7.714844 19.347656 -6.441406 C 19.007812 -5.183594 18.375 -4.007812 17.460938 -2.921875 C 15.605469 -0.742188 12.929688 0.679688 9.4375 1.34375 C 7.679688 1.675781 6.105469 1.832031 4.722656 1.816406 C 3.253906 1.796875 1.785156 1.558594 0.320312 1.097656 L -0.289062 0.90625 L -0.746094 0.453125 C -2.097656 -0.882812 -2.929688 -2.386719 -3.246094 -4.054688 C -3.417969 -4.964844 -3.417969 -5.839844 -3.242188 -6.6875 C -3.0625 -7.554688 -2.707031 -8.363281 -2.175781 -9.109375 C -1.65625 -9.839844 -1.027344 -10.4375 -0.289062 -10.898438 C 0.433594 -11.351562 1.238281 -11.664062 2.132812 -11.832031 C 3.769531 -12.140625 5.230469 -12.039062 6.519531 -11.519531 C 7.90625 -10.957031 9.019531 -9.910156 9.859375 -8.382812 L 7.542969 -7.105469 Z M 8.492188 -4.632812 L 6.335938 -3.804688 L 5.222656 -5.828125 C 4.984375 -6.257812 4.757812 -6.519531 4.53125 -6.609375 C 4.207031 -6.738281 3.738281 -6.746094 3.117188 -6.628906 C 2.878906 -6.582031 2.679688 -6.511719 2.523438 -6.410156 C 2.378906 -6.324219 2.253906 -6.199219 2.140625 -6.042969 C 2.039062 -5.898438 1.972656 -5.757812 1.945312 -5.613281 C 1.910156 -5.453125 1.914062 -5.261719 1.957031 -5.042969 C 2.070312 -4.453125 2.410156 -3.875 2.980469 -3.308594 L 1.117188 -1.429688 L 1.914062 -3.953125 C 2.878906 -3.648438 3.839844 -3.492188 4.789062 -3.480469 C 5.820312 -3.464844 7.042969 -3.59375 8.453125 -3.859375 C 10.722656 -4.289062 12.375 -5.113281 13.410156 -6.332031 C 13.824219 -6.824219 14.101562 -7.324219 14.242188 -7.832031 C 14.375 -8.324219 14.386719 -8.855469 14.277344 -9.425781 C 14.136719 -10.167969 13.910156 -10.765625 13.601562 -11.21875 C 13.339844 -11.597656 13.003906 -11.890625 12.589844 -12.097656 C 11.710938 -12.527344 10.578125 -12.613281 9.199219 -12.351562 C 8.867188 -12.289062 8.632812 -12.226562 8.5 -12.164062 L 6.347656 -11.152344 L 5.113281 -13.183594 C 4.902344 -13.53125 4.757812 -13.910156 4.679688 -14.3125 C 4.613281 -14.671875 4.609375 -15.03125 4.667969 -15.386719 C 4.730469 -15.753906 4.855469 -16.09375 5.046875 -16.414062 C 5.320312 -16.886719 5.710938 -17.269531 6.210938 -17.570312 C 6.523438 -17.757812 6.910156 -17.917969 7.375 -18.050781 C 7.691406 -18.140625 8.074219 -18.230469 8.519531 -18.3125 C 9.5 -18.5 10.589844 -18.535156 11.78125 -18.417969 C 12.347656 -18.363281 12.847656 -18.292969 13.273438 -18.203125 C 13.816406 -18.089844 14.28125 -17.941406 14.667969 -17.753906 L 13.523438 -15.367188 L 11.355469 -16.886719 C 11.402344 -16.953125 11.4375 -17.078125 11.460938 -17.265625 C 11.503906 -17.601562 11.484375 -17.992188 11.402344 -18.425781 C 11.324219 -18.84375 11.179688 -19.234375 10.972656 -19.59375 L 13.265625 -20.917969 L 12.070312 -18.554688 C 11.453125 -18.863281 10.648438 -19.078125 9.652344 -19.195312 C 8.613281 -19.316406 7.324219 -19.230469 5.78125 -18.9375 C 3.867188 -18.574219 2.371094 -17.882812 1.300781 -16.855469 C 0.78125 -16.359375 0.429688 -15.832031 0.253906 -15.277344 C 0.078125 -14.71875 0.0546875 -14.085938 0.191406 -13.371094 C 0.277344 -12.925781 0.457031 -12.53125 0.730469 -12.195312 C 0.9375 -11.9375 1.15625 -11.777344 1.386719 -11.710938 L 0.648438 -9.167969 L -0.746094 -11.417969 C 0.136719 -11.964844 1.117188 -12.339844 2.191406 -12.542969 C 3.234375 -12.742188 4.21875 -12.78125 5.144531 -12.65625 C 6.152344 -12.519531 7.082031 -12.195312 7.929688 -11.679688 C 8.605469 -11.265625 9.160156 -10.773438 9.597656 -10.203125 C 10.097656 -9.558594 10.414062 -8.886719 10.542969 -8.199219 C 10.617188 -7.816406 10.621094 -7.4375 10.558594 -7.066406 C 10.484375 -6.632812 10.324219 -6.238281 10.082031 -5.875 C 9.703125 -5.308594 9.171875 -4.898438 8.492188 -4.632812 Z M 8.492188 -4.632812 "/></g></g></g><g fill="#7c5295" fill-opacity="1"><g transform="translate(27.344, 32.419901)"><g/></g></g><g fill="#7c5295" fill-opacity="1"><g transform="translate(26.838747, 32.481453)"><g><path d="M 15.144531 -13.460938 L 16.304688 -1.539062 L 15.472656 -0.664062 C 14.8125 0.0351562 13.949219 0.628906 12.886719 1.121094 C 11.859375 1.597656 10.636719 1.90625 9.21875 2.042969 C 7.589844 2.199219 6.128906 1.953125 4.839844 1.296875 C 3.996094 0.890625 3.316406 0.324219 2.796875 -0.398438 C 2.261719 -1.144531 1.949219 -2 1.855469 -2.964844 L 0.902344 -12.785156 L 3.535156 -13.042969 L 3.792969 -10.40625 L -1.132812 -9.929688 L -2.03125 -10.976562 C -3.222656 -12.378906 -3.910156 -13.972656 -4.082031 -15.765625 C -4.199219 -16.972656 -4.097656 -18.074219 -3.777344 -19.074219 C -3.449219 -20.105469 -2.960938 -20.960938 -2.324219 -21.636719 L -1.644531 -22.359375 L 16.550781 -24.125 L 17.445312 -22.992188 C 17.941406 -22.363281 18.363281 -21.617188 18.714844 -20.753906 C 19.070312 -19.882812 19.289062 -19 19.375 -18.105469 C 19.558594 -16.210938 19.203125 -14.679688 18.300781 -13.511719 C 17.824219 -12.890625 17.238281 -12.402344 16.542969 -12.046875 C 15.902344 -11.714844 15.1875 -11.511719 14.40625 -11.4375 L 9.9375 -11.003906 L 9.683594 -13.640625 L 12.207031 -12.835938 C 12.292969 -13.105469 12.320312 -13.382812 12.292969 -13.660156 C 12.269531 -13.914062 12.203125 -14.160156 12.09375 -14.394531 C 11.96875 -14.667969 11.796875 -14.90625 11.578125 -15.113281 C 11.257812 -15.414062 10.894531 -15.601562 10.492188 -15.675781 L 10.570312 -15.660156 C 10.492188 -15.675781 10.429688 -15.6875 10.378906 -15.6875 C 10.398438 -15.6875 10.4375 -15.6875 10.488281 -15.6875 C 10.664062 -15.691406 10.902344 -15.710938 11.203125 -15.738281 L 14.890625 -16.097656 Z M 9.875 -12.949219 L 12.511719 -13.207031 L 12.765625 -10.570312 L 11.714844 -10.46875 C 11.28125 -10.425781 10.914062 -10.402344 10.609375 -10.394531 C 10.160156 -10.382812 9.777344 -10.414062 9.460938 -10.480469 L 10.015625 -13.070312 L 9.535156 -10.464844 C 8.914062 -10.582031 8.382812 -10.84375 7.945312 -11.257812 C 7.667969 -11.519531 7.449219 -11.824219 7.289062 -12.171875 C 7.144531 -12.480469 7.058594 -12.804688 7.023438 -13.148438 C 6.980469 -13.59375 7.027344 -14.023438 7.160156 -14.441406 L 7.6875 -16.105469 L 13.894531 -16.707031 C 14.007812 -16.71875 14.082031 -16.734375 14.125 -16.757812 C 14.117188 -16.753906 14.109375 -16.746094 14.105469 -16.742188 C 14.089844 -16.71875 14.074219 -16.699219 14.070312 -16.6875 C 14.078125 -16.703125 14.085938 -16.734375 14.09375 -16.78125 C 14.132812 -16.980469 14.136719 -17.25 14.105469 -17.59375 C 14.066406 -17.976562 13.96875 -18.367188 13.808594 -18.761719 C 13.648438 -19.160156 13.476562 -19.476562 13.292969 -19.707031 L 15.367188 -21.347656 L 15.625 -18.714844 L -0.144531 -17.183594 L -0.398438 -19.820312 L 1.523438 -18 C 1.4375 -17.90625 1.351562 -17.726562 1.265625 -17.457031 C 1.167969 -17.152344 1.140625 -16.757812 1.1875 -16.277344 C 1.253906 -15.589844 1.523438 -14.972656 1.996094 -14.417969 L -0.015625 -12.699219 L -0.273438 -15.332031 L 5.917969 -15.933594 L 7.125 -3.476562 C 7.128906 -3.449219 7.128906 -3.433594 7.132812 -3.425781 C 7.125 -3.445312 7.117188 -3.464844 7.101562 -3.484375 C 7.089844 -3.5 7.082031 -3.511719 7.078125 -3.511719 C 7.101562 -3.496094 7.15625 -3.464844 7.238281 -3.425781 C 7.609375 -3.234375 8.101562 -3.167969 8.707031 -3.226562 C 9.527344 -3.308594 10.175781 -3.460938 10.660156 -3.683594 C 11.109375 -3.890625 11.433594 -4.097656 11.628906 -4.304688 L 13.550781 -2.484375 L 10.914062 -2.230469 Z M 9.875 -12.949219 "/></g></g></g><g fill="#7c5295" fill-opacity="1"><g transform="translate(45.253468, 30.694368)"><g/></g></g><g fill="#7c5295" fill-opacity="1"><g transform="translate(44.692647, 30.669162)"><g><path d="M 8.371094 -10.570312 C 8.371094 -11.023438 8.363281 -11.394531 8.34375 -11.6875 C 8.332031 -11.890625 8.320312 -12.011719 8.308594 -12.058594 C 8.324219 -11.988281 8.351562 -11.914062 8.386719 -11.832031 C 8.464844 -11.664062 8.566406 -11.507812 8.699219 -11.355469 C 8.902344 -11.125 9.148438 -10.941406 9.433594 -10.808594 C 9.734375 -10.671875 10.050781 -10.601562 10.375 -10.601562 C 10.617188 -10.601562 10.851562 -10.644531 11.078125 -10.726562 C 11.292969 -10.808594 11.488281 -10.917969 11.660156 -11.0625 L 9.964844 -13.097656 L 12.597656 -13.386719 C 12.613281 -13.222656 12.640625 -12.996094 12.679688 -12.710938 C 12.738281 -12.285156 12.765625 -11.515625 12.765625 -10.398438 L 12.761719 -9.402344 C 12.761719 -8.621094 12.742188 -8.03125 12.703125 -7.628906 L 12.628906 -6.824219 L 12.601562 -6.484375 L 9.960938 -6.707031 L 11.65625 -8.742188 C 11.484375 -8.882812 11.292969 -8.996094 11.078125 -9.074219 C 10.851562 -9.160156 10.617188 -9.203125 10.375 -9.203125 C 10.046875 -9.203125 9.734375 -9.132812 9.433594 -8.992188 C 9.148438 -8.859375 8.902344 -8.679688 8.699219 -8.445312 C 8.566406 -8.296875 8.460938 -8.136719 8.386719 -7.972656 C 8.347656 -7.890625 8.324219 -7.816406 8.304688 -7.746094 C 8.316406 -7.792969 8.328125 -7.914062 8.34375 -8.117188 C 8.363281 -8.410156 8.371094 -8.78125 8.371094 -9.234375 Z M 13.667969 -10.566406 L 13.667969 -9.234375 C 13.667969 -8.003906 13.597656 -7.09375 13.457031 -6.507812 C 13.308594 -5.890625 13.046875 -5.371094 12.671875 -4.945312 C 12.382812 -4.621094 12.046875 -4.367188 11.65625 -4.1875 C 11.25 -4 10.824219 -3.90625 10.375 -3.90625 C 9.980469 -3.90625 9.601562 -3.972656 9.234375 -4.109375 C 8.882812 -4.238281 8.558594 -4.429688 8.265625 -4.671875 L 7.207031 -5.554688 L 7.355469 -7.324219 L 7.433594 -8.144531 C 7.457031 -8.375 7.46875 -8.796875 7.46875 -9.40625 L 7.46875 -10.398438 C 7.46875 -11.285156 7.457031 -11.820312 7.429688 -12.011719 C 7.386719 -12.335938 7.355469 -12.601562 7.332031 -12.804688 L 7.175781 -14.21875 L 8.269531 -15.128906 C 8.5625 -15.375 8.886719 -15.5625 9.242188 -15.695312 C 9.605469 -15.828125 9.984375 -15.898438 10.378906 -15.898438 C 10.828125 -15.898438 11.257812 -15.804688 11.660156 -15.617188 C 12.050781 -15.433594 12.386719 -15.179688 12.675781 -14.855469 C 13.050781 -14.429688 13.308594 -13.910156 13.457031 -13.292969 C 13.597656 -12.703125 13.667969 -11.796875 13.667969 -10.566406 Z M 10.402344 3.140625 C 8.171875 3.140625 6.113281 2.671875 4.226562 1.738281 C 2.246094 0.757812 0.65625 -0.726562 -0.539062 -2.71875 C -1.71875 -4.6875 -2.308594 -7.074219 -2.308594 -9.882812 C -2.304688 -11.890625 -1.992188 -13.707031 -1.371094 -15.324219 C -0.71875 -17.015625 0.261719 -18.46875 1.570312 -19.691406 C 2.738281 -20.773438 4.070312 -21.582031 5.566406 -22.121094 C 7.011719 -22.640625 8.597656 -22.898438 10.320312 -22.898438 C 12.191406 -22.898438 13.890625 -22.597656 15.414062 -22 C 17.003906 -21.378906 18.378906 -20.445312 19.546875 -19.203125 C 20.695312 -17.984375 21.554688 -16.574219 22.128906 -14.972656 C 22.679688 -13.433594 22.953125 -11.730469 22.953125 -9.875 C 22.953125 -7.835938 22.65625 -6.011719 22.070312 -4.402344 C 21.445312 -2.691406 20.503906 -1.242188 19.242188 -0.046875 C 18.089844 1.035156 16.753906 1.84375 15.234375 2.378906 C 13.78125 2.886719 12.167969 3.144531 10.402344 3.140625 Z M 10.402344 -2.152344 C 11.570312 -2.152344 12.59375 -2.308594 13.480469 -2.621094 C 14.296875 -2.90625 15.003906 -3.332031 15.601562 -3.894531 C 16.257812 -4.515625 16.757812 -5.289062 17.09375 -6.214844 C 17.46875 -7.242188 17.65625 -8.460938 17.65625 -9.875 C 17.65625 -11.121094 17.484375 -12.226562 17.140625 -13.191406 C 16.816406 -14.097656 16.332031 -14.890625 15.691406 -15.578125 C 15.066406 -16.238281 14.332031 -16.738281 13.484375 -17.070312 C 12.578125 -17.425781 11.523438 -17.601562 10.316406 -17.601562 C 9.210938 -17.601562 8.222656 -17.449219 7.355469 -17.136719 C 6.539062 -16.84375 5.8125 -16.402344 5.183594 -15.820312 C 4.46875 -15.152344 3.933594 -14.351562 3.570312 -13.417969 C 3.183594 -12.414062 2.988281 -11.234375 2.988281 -9.882812 C 2.988281 -8.050781 3.328125 -6.574219 4.003906 -5.445312 C 4.664062 -4.339844 5.523438 -3.527344 6.578125 -3.007812 C 7.722656 -2.4375 9 -2.152344 10.402344 -2.152344 Z M 10.402344 -2.152344 "/></g></g></g><g fill="#7c5295" fill-opacity="1"><g transform="translate(65.323265, 30.677084)"><g/></g></g><g fill="#7c5295" fill-opacity="1"><g transform="translate(64.7674, 30.68193)"><g><path d="M 11.882812 -11.890625 C 11.65625 -12.097656 11.402344 -12.261719 11.121094 -12.371094 C 11.015625 -12.414062 10.910156 -12.449219 10.808594 -12.472656 C 10.769531 -12.480469 10.734375 -12.488281 10.699219 -12.492188 L 10.703125 -12.492188 C 10.371094 -12.527344 10.042969 -12.480469 9.722656 -12.351562 C 9.375 -12.214844 9.089844 -12.003906 8.855469 -11.722656 C 8.695312 -11.527344 8.582031 -11.324219 8.519531 -11.117188 C 8.507812 -11.082031 8.5 -11.050781 8.496094 -11.023438 C 8.492188 -11.019531 8.492188 -11.019531 8.492188 -11.015625 C 8.496094 -11.023438 8.496094 -11.03125 8.496094 -11.039062 L 8.550781 -11.585938 C 8.554688 -11.617188 8.554688 -11.644531 8.554688 -11.660156 C 8.554688 -11.65625 8.554688 -11.644531 8.558594 -11.628906 C 8.570312 -11.460938 8.613281 -11.28125 8.699219 -11.085938 C 8.863281 -10.699219 9.121094 -10.382812 9.472656 -10.140625 C 9.78125 -9.925781 10.113281 -9.800781 10.46875 -9.765625 C 10.5 -9.761719 10.550781 -9.761719 10.613281 -9.765625 C 10.875 -9.78125 11.136719 -9.84375 11.398438 -9.960938 L 10.320312 -12.378906 L 12.957031 -12.640625 C 12.976562 -12.414062 12.976562 -12.152344 12.945312 -11.855469 L 12.726562 -9.675781 L 10.09375 -9.941406 Z M 7.328125 -8.886719 L 7.675781 -12.382812 C 7.671875 -12.304688 7.675781 -12.21875 7.6875 -12.121094 L 7.5 -14.019531 L 9.242188 -14.796875 C 9.746094 -15.023438 10.328125 -15.101562 10.996094 -15.035156 C 11.546875 -14.980469 12.042969 -14.800781 12.488281 -14.496094 C 12.972656 -14.15625 13.335938 -13.710938 13.570312 -13.160156 C 13.820312 -12.574219 13.902344 -11.875 13.820312 -11.0625 L 13.765625 -10.511719 C 13.679688 -9.636719 13.40625 -8.917969 12.949219 -8.363281 C 12.601562 -7.941406 12.175781 -7.628906 11.675781 -7.429688 C 11.199219 -7.242188 10.699219 -7.171875 10.175781 -7.222656 C 9.964844 -7.246094 9.773438 -7.277344 9.605469 -7.316406 C 9.097656 -7.433594 8.660156 -7.660156 8.300781 -7.988281 Z M 19.679688 -7.332031 L 22.835938 -3.386719 L 22.566406 -2.152344 C 22.101562 -0.00390625 21.1875 1.648438 19.832031 2.804688 C 19.078125 3.453125 18.214844 3.90625 17.238281 4.164062 C 16.34375 4.40625 15.371094 4.472656 14.328125 4.371094 C 12.726562 4.210938 11.34375 3.667969 10.183594 2.746094 C 8.757812 1.625 7.785156 0.0351562 7.273438 -2.027344 L 6.878906 -3.554688 L 9.445312 -4.214844 L 9.117188 -1.585938 C 8.578125 -1.65625 7.929688 -1.785156 7.179688 -1.980469 L 7.84375 -4.542969 L 9.523438 -2.496094 C 9.78125 -2.707031 9.980469 -2.960938 10.125 -3.261719 C 10.234375 -3.488281 10.300781 -3.71875 10.324219 -3.957031 C 10.355469 -4.277344 10.324219 -4.585938 10.230469 -4.894531 C 10.148438 -5.167969 10.019531 -5.417969 9.847656 -5.644531 C 9.652344 -5.894531 9.429688 -6.085938 9.179688 -6.214844 C 9.132812 -6.238281 9.09375 -6.257812 9.054688 -6.273438 C 9.046875 -6.273438 9.042969 -6.277344 9.039062 -6.277344 C 9.039062 -6.277344 9.042969 -6.277344 9.050781 -6.273438 C 9.109375 -6.257812 9.191406 -6.242188 9.300781 -6.222656 L 10.960938 -5.953125 L 12.210938 -1.566406 L 11.894531 1.597656 L 10.699219 2.273438 C 8.960938 3.253906 6.898438 3.628906 4.511719 3.390625 C 2.65625 3.203125 1.152344 2.625 0.00390625 1.652344 C -0.707031 1.050781 -1.222656 0.332031 -1.539062 -0.503906 C -1.84375 -1.304688 -1.953125 -2.167969 -1.859375 -3.097656 L -0.414062 -17.578125 C -0.363281 -18.082031 -0.207031 -18.550781 0.0546875 -18.996094 C 0.265625 -19.34375 0.535156 -19.664062 0.863281 -19.949219 C 1.320312 -20.34375 1.90625 -20.679688 2.621094 -20.960938 C 3.71875 -21.390625 5.070312 -21.683594 6.675781 -21.832031 C 8.203125 -21.972656 9.714844 -21.96875 11.21875 -21.820312 C 14.839844 -21.457031 17.660156 -20.375 19.679688 -18.570312 C 20.84375 -17.535156 21.683594 -16.328125 22.199219 -14.949219 C 22.699219 -13.597656 22.871094 -12.125 22.714844 -10.527344 C 22.617188 -9.566406 22.386719 -8.671875 22.023438 -7.847656 C 21.644531 -7 21.132812 -6.238281 20.480469 -5.566406 C 19.242188 -4.285156 17.757812 -3.460938 16.027344 -3.085938 L 15.472656 -5.675781 L 18.105469 -5.414062 C 18.132812 -5.671875 18.105469 -5.933594 18.03125 -6.195312 C 17.925781 -6.5625 17.738281 -6.882812 17.46875 -7.152344 C 17.246094 -7.378906 16.996094 -7.546875 16.714844 -7.65625 C 16.5625 -7.714844 16.414062 -7.75 16.273438 -7.765625 C 16.148438 -7.777344 16.03125 -7.773438 15.925781 -7.757812 C 15.886719 -7.753906 15.859375 -7.746094 15.847656 -7.742188 C 15.9375 -7.773438 16.074219 -7.84375 16.253906 -7.949219 L 18.238281 -9.136719 Z M 15.542969 -4.023438 L 17.613281 -5.679688 L 18.972656 -3.40625 C 18.472656 -3.109375 18.003906 -2.882812 17.5625 -2.730469 C 16.929688 -2.515625 16.324219 -2.4375 15.746094 -2.496094 C 14.917969 -2.578125 14.234375 -2.890625 13.695312 -3.4375 C 13.335938 -3.800781 13.085938 -4.230469 12.945312 -4.722656 C 12.832031 -5.113281 12.792969 -5.519531 12.835938 -5.941406 L 13.027344 -7.859375 L 14.914062 -8.265625 C 15.597656 -8.410156 16.183594 -8.738281 16.675781 -9.246094 C 17.113281 -9.699219 17.367188 -10.300781 17.441406 -11.054688 C 17.519531 -11.835938 17.453125 -12.519531 17.234375 -13.101562 C 17.027344 -13.65625 16.667969 -14.164062 16.152344 -14.621094 C 14.988281 -15.660156 13.167969 -16.300781 10.691406 -16.550781 C 9.527344 -16.664062 8.355469 -16.667969 7.167969 -16.558594 C 6.058594 -16.457031 5.1875 -16.28125 4.554688 -16.03125 C 4.445312 -15.988281 4.363281 -15.949219 4.300781 -15.917969 C 4.289062 -15.910156 4.28125 -15.90625 4.277344 -15.902344 C 4.292969 -15.914062 4.308594 -15.925781 4.328125 -15.941406 C 4.429688 -16.03125 4.523438 -16.148438 4.609375 -16.289062 C 4.746094 -16.519531 4.828125 -16.773438 4.855469 -17.054688 L 3.410156 -2.570312 C 3.402344 -2.5 3.402344 -2.445312 3.40625 -2.402344 C 3.410156 -2.390625 3.410156 -2.386719 3.410156 -2.382812 C 3.410156 -2.382812 3.410156 -2.386719 3.40625 -2.390625 C 3.402344 -2.402344 3.398438 -2.414062 3.390625 -2.421875 C 3.394531 -2.414062 3.40625 -2.40625 3.425781 -2.390625 C 3.550781 -2.28125 3.722656 -2.191406 3.9375 -2.109375 C 4.238281 -2 4.605469 -1.925781 5.039062 -1.878906 C 6.3125 -1.753906 7.328125 -1.90625 8.09375 -2.335938 L 9.394531 -0.03125 L 6.761719 -0.292969 L 6.890625 -1.589844 L 9.523438 -1.328125 L 6.976562 -0.601562 L 6.328125 -2.882812 L 8.875 -3.609375 L 8.449219 -0.996094 C 7.765625 -1.109375 7.199219 -1.277344 6.753906 -1.507812 C 6.304688 -1.738281 5.9375 -2.042969 5.648438 -2.414062 C 5.429688 -2.699219 5.269531 -3.007812 5.164062 -3.347656 C 5.054688 -3.71875 5.015625 -4.097656 5.054688 -4.484375 C 5.09375 -4.863281 5.191406 -5.222656 5.351562 -5.554688 C 5.546875 -5.964844 5.820312 -6.308594 6.167969 -6.59375 L 7.210938 -7.445312 L 8.511719 -7.105469 C 9.039062 -6.96875 9.457031 -6.882812 9.769531 -6.84375 L 11.558594 -6.621094 L 12.414062 -3.304688 C 12.632812 -2.421875 12.988281 -1.785156 13.484375 -1.398438 C 13.828125 -1.121094 14.285156 -0.957031 14.855469 -0.898438 C 15.257812 -0.859375 15.59375 -0.878906 15.871094 -0.949219 C 16.070312 -1.003906 16.246094 -1.09375 16.394531 -1.21875 C 16.84375 -1.605469 17.179688 -2.292969 17.394531 -3.28125 L 19.980469 -2.714844 L 17.910156 -1.0625 Z M 15.542969 -4.023438 "/></g></g></g><g fill="#7c5295" fill-opacity="1"><g transform="translate(83.975968, 32.600215)"><g/></g></g><g fill="#7c5295" fill-opacity="1"><g transform="translate(83.459865, 32.577195)"><g><path d="M 11.480469 -20.617188 L 21.628906 -18.667969 L 22.144531 -17.265625 C 22.4375 -16.480469 22.605469 -15.65625 22.652344 -14.792969 C 22.695312 -13.984375 22.652344 -13.25 22.523438 -12.585938 C 22.214844 -10.980469 21.589844 -9.761719 20.640625 -8.925781 C 20.070312 -8.421875 19.425781 -8.082031 18.703125 -7.902344 C 18.027344 -7.734375 17.316406 -7.722656 16.582031 -7.863281 L 10.515625 -9.027344 C 10.648438 -9.003906 10.789062 -8.996094 10.941406 -9.007812 C 11.234375 -9.027344 11.515625 -9.105469 11.789062 -9.246094 C 12.140625 -9.425781 12.425781 -9.679688 12.644531 -10.007812 C 12.8125 -10.253906 12.921875 -10.519531 12.976562 -10.800781 L 12.953125 -10.679688 C 12.988281 -10.863281 13 -11.054688 12.988281 -11.25 C 12.964844 -11.714844 12.816406 -12.144531 12.550781 -12.539062 L 10.359375 -11.054688 L 10.859375 -13.652344 L 19.546875 -11.984375 L 20.050781 -10.546875 C 20.246094 -9.984375 20.375 -9.34375 20.433594 -8.621094 L 20.4375 -8.570312 L 20.4375 -8.519531 C 20.46875 -7.777344 20.425781 -7.109375 20.3125 -6.503906 C 19.984375 -4.792969 19.347656 -3.453125 18.410156 -2.488281 L 17.414062 -1.464844 L 12.746094 -2.359375 C 12.03125 -2.496094 11.4375 -2.597656 10.964844 -2.660156 C 10.578125 -2.714844 10.3125 -2.738281 10.167969 -2.734375 C 9.949219 -2.730469 9.785156 -2.722656 9.671875 -2.710938 C 9.65625 -2.710938 9.644531 -2.710938 9.636719 -2.710938 C 9.640625 -2.710938 9.648438 -2.710938 9.660156 -2.710938 C 9.757812 -2.730469 9.867188 -2.761719 9.988281 -2.804688 L 9.050781 -5.28125 L 10.117188 -2.859375 C 10.414062 -2.992188 10.671875 -3.183594 10.890625 -3.441406 C 11.148438 -3.746094 11.3125 -4.089844 11.386719 -4.476562 C 11.472656 -4.910156 11.429688 -5.335938 11.265625 -5.75 C 11.128906 -6.09375 10.925781 -6.382812 10.65625 -6.613281 L 8.933594 -4.601562 L 8.601562 -7.230469 C 9.324219 -7.320312 10.066406 -7.34375 10.824219 -7.289062 L 10.859375 -7.289062 L 10.898438 -7.285156 C 11.746094 -7.203125 12.652344 -7.070312 13.617188 -6.882812 L 19.1875 -5.8125 L 19.753906 -4.570312 C 20.433594 -3.078125 20.605469 -1.445312 20.265625 0.320312 C 20.089844 1.234375 19.804688 2.09375 19.410156 2.894531 C 18.933594 3.859375 18.324219 4.621094 17.582031 5.191406 L 16.640625 5.90625 L 4.207031 3.519531 C 2.355469 3.164062 0.910156 2.378906 -0.128906 1.160156 C -0.757812 0.4375 -1.179688 -0.394531 -1.394531 -1.34375 C -1.589844 -2.214844 -1.59375 -3.140625 -1.40625 -4.125 L 1.34375 -18.433594 C 1.464844 -19.074219 1.757812 -19.632812 2.21875 -20.101562 C 2.570312 -20.460938 3 -20.742188 3.503906 -20.941406 C 4.117188 -21.183594 4.878906 -21.308594 5.78125 -21.316406 C 7.101562 -21.328125 9 -21.09375 11.480469 -20.617188 Z M 10.480469 -15.417969 C 8.34375 -15.828125 6.792969 -16.027344 5.820312 -16.019531 C 5.652344 -16.019531 5.519531 -16.011719 5.417969 -15.996094 C 5.394531 -15.992188 5.378906 -15.992188 5.371094 -15.988281 C 5.390625 -15.992188 5.417969 -16.003906 5.453125 -16.015625 C 5.644531 -16.09375 5.828125 -16.21875 6.003906 -16.398438 C 6.285156 -16.6875 6.464844 -17.03125 6.542969 -17.433594 L 3.796875 -3.125 C 3.746094 -2.863281 3.738281 -2.660156 3.773438 -2.507812 C 3.789062 -2.433594 3.832031 -2.355469 3.898438 -2.277344 C 4.136719 -2 4.570312 -1.804688 5.207031 -1.679688 L 16.476562 0.484375 L 15.976562 3.082031 L 14.371094 0.976562 C 14.457031 0.914062 14.550781 0.773438 14.65625 0.558594 C 14.84375 0.179688 14.976562 -0.230469 15.0625 -0.679688 C 15.191406 -1.339844 15.148438 -1.90625 14.933594 -2.375 L 17.34375 -3.472656 L 16.84375 -0.871094 L 12.617188 -1.683594 C 11.816406 -1.835938 11.070312 -1.945312 10.386719 -2.011719 L 10.644531 -4.648438 L 10.464844 -2.007812 C 10.050781 -2.035156 9.652344 -2.023438 9.269531 -1.976562 L 8.101562 -1.828125 L 7.210938 -2.59375 C 6.816406 -2.929688 6.527344 -3.332031 6.339844 -3.800781 C 6.128906 -4.339844 6.078125 -4.898438 6.1875 -5.472656 C 6.289062 -6 6.511719 -6.464844 6.855469 -6.871094 C 7.160156 -7.230469 7.535156 -7.507812 7.980469 -7.703125 L 8.042969 -7.734375 L 8.113281 -7.757812 C 8.40625 -7.871094 8.761719 -7.945312 9.175781 -7.984375 C 9.417969 -8.007812 9.714844 -8.023438 10.058594 -8.03125 C 10.808594 -8.046875 12.039062 -7.886719 13.746094 -7.5625 L 17.011719 -6.933594 L 16.511719 -4.332031 L 14.613281 -6.179688 C 14.679688 -6.25 14.75 -6.363281 14.824219 -6.527344 C 14.9375 -6.785156 15.035156 -7.109375 15.109375 -7.503906 C 15.148438 -7.703125 15.160156 -7.96875 15.148438 -8.300781 L 17.792969 -8.410156 L 15.152344 -8.195312 C 15.132812 -8.464844 15.097656 -8.667969 15.054688 -8.796875 L 17.550781 -9.671875 L 17.054688 -7.070312 L 8.785156 -8.660156 L 8.167969 -9.566406 C 7.886719 -9.984375 7.730469 -10.445312 7.703125 -10.957031 C 7.6875 -11.195312 7.707031 -11.433594 7.753906 -11.679688 L 7.777344 -11.800781 C 7.859375 -12.226562 8.015625 -12.613281 8.25 -12.960938 C 8.539062 -13.386719 8.910156 -13.71875 9.367188 -13.953125 C 10.015625 -14.289062 10.730469 -14.378906 11.515625 -14.230469 L 17.578125 -13.066406 C 17.585938 -13.0625 17.589844 -13.0625 17.59375 -13.0625 C 17.585938 -13.0625 17.578125 -13.0625 17.570312 -13.0625 C 17.527344 -13.0625 17.480469 -13.054688 17.429688 -13.042969 C 17.3125 -13.015625 17.21875 -12.96875 17.140625 -12.898438 C 17.117188 -12.878906 17.097656 -12.859375 17.085938 -12.84375 C 17.097656 -12.859375 17.113281 -12.882812 17.128906 -12.917969 C 17.203125 -13.078125 17.269531 -13.300781 17.324219 -13.585938 C 17.371094 -13.824219 17.382812 -14.132812 17.363281 -14.511719 C 17.34375 -14.839844 17.285156 -15.144531 17.175781 -15.433594 L 19.660156 -16.351562 L 19.164062 -13.75 Z M 10.480469 -15.417969 "/></g></g></g><g fill="#7c5295" fill-opacity="1"><g transform="translate(100.189255, 35.789987)"><g/></g></g><g fill="#ffffff" fill-opacity="1"><g transform="translate(9.663802, 35.771476)"><g><path d="M 7.546875 -7.109375 C 7.859375 -7.234375 7.988281 -7.429688 7.9375 -7.703125 C 7.882812 -7.984375 7.738281 -8.28125 7.5 -8.59375 C 7.257812 -8.90625 6.941406 -9.1875 6.546875 -9.4375 C 5.492188 -10.0625 4.207031 -10.226562 2.6875 -9.9375 C 1.9375 -9.800781 1.253906 -9.546875 0.640625 -9.171875 C -0.105469 -9.378906 -0.757812 -9.828125 -1.3125 -10.515625 C -1.875 -11.203125 -2.238281 -11.984375 -2.40625 -12.859375 C -2.84375 -15.171875 -2.21875 -17.132812 -0.53125 -18.75 C 0.925781 -20.144531 2.867188 -21.070312 5.296875 -21.53125 C 7.109375 -21.875 8.664062 -21.972656 9.96875 -21.828125 C 11.269531 -21.679688 12.367188 -21.378906 13.265625 -20.921875 C 13.628906 -20.296875 13.878906 -19.625 14.015625 -18.90625 C 14.148438 -18.195312 14.175781 -17.53125 14.09375 -16.90625 C 14.007812 -16.289062 13.816406 -15.773438 13.515625 -15.359375 C 13.128906 -15.535156 12.46875 -15.671875 11.53125 -15.765625 C 10.59375 -15.867188 9.753906 -15.847656 9.015625 -15.703125 C 8.273438 -15.566406 7.789062 -15.429688 7.5625 -15.296875 C 7.332031 -15.160156 7.238281 -14.992188 7.28125 -14.796875 C 7.289062 -14.703125 7.320312 -14.628906 7.375 -14.578125 C 7.707031 -14.710938 8.148438 -14.832031 8.703125 -14.9375 C 10.660156 -15.3125 12.34375 -15.15625 13.75 -14.46875 C 15.414062 -13.644531 16.457031 -12.132812 16.875 -9.9375 C 17.25 -7.976562 16.769531 -6.207031 15.4375 -4.625 C 13.988281 -2.925781 11.820312 -1.800781 8.9375 -1.25 C 7.363281 -0.957031 5.96875 -0.816406 4.75 -0.828125 C 3.539062 -0.847656 2.328125 -1.046875 1.109375 -1.421875 C 0.160156 -2.378906 -0.414062 -3.421875 -0.625 -4.546875 C -0.84375 -5.679688 -0.632812 -6.691406 0 -7.578125 C 0.625 -8.460938 1.5 -9.007812 2.625 -9.21875 C 3.75 -9.4375 4.71875 -9.382812 5.53125 -9.0625 C 6.34375 -8.738281 7.015625 -8.085938 7.546875 -7.109375 Z M 7.546875 -7.109375 "/></g></g></g><g fill="#ffffff" fill-opacity="1"><g transform="translate(27.344, 32.419901)"><g/></g></g><g fill="#ffffff" fill-opacity="1"><g transform="translate(26.838747, 32.481453)"><g><path d="M 12.515625 -13.203125 L 13.5625 -2.5 C 13.125 -2.03125 12.523438 -1.617188 11.765625 -1.265625 C 11.015625 -0.921875 10.082031 -0.691406 8.96875 -0.578125 C 7.851562 -0.472656 6.875 -0.632812 6.03125 -1.0625 C 5.101562 -1.519531 4.59375 -2.238281 4.5 -3.21875 L 3.546875 -13.046875 L -0.015625 -12.6875 C -0.847656 -13.675781 -1.320312 -14.785156 -1.4375 -16.015625 C -1.519531 -16.867188 -1.457031 -17.617188 -1.25 -18.265625 C -1.039062 -18.910156 -0.753906 -19.425781 -0.390625 -19.8125 L 15.375 -21.34375 C 15.707031 -20.914062 16 -20.382812 16.25 -19.75 C 16.507812 -19.125 16.671875 -18.488281 16.734375 -17.84375 C 16.847656 -16.65625 16.671875 -15.75 16.203125 -15.125 C 15.734375 -14.507812 15.046875 -14.15625 14.140625 -14.0625 L 9.6875 -13.640625 C 9.664062 -13.554688 9.65625 -13.472656 9.65625 -13.390625 C 9.675781 -13.210938 9.800781 -13.101562 10.03125 -13.0625 C 10.25 -13.007812 10.722656 -13.019531 11.453125 -13.09375 Z M 12.515625 -13.203125 "/></g></g></g><g fill="#ffffff" fill-opacity="1"><g transform="translate(45.253468, 30.694368)"><g/></g></g><g fill="#ffffff" fill-opacity="1"><g transform="translate(44.692647, 30.669162)"><g><path d="M 11.015625 -10.578125 C 11.015625 -11.597656 10.96875 -12.296875 10.875 -12.671875 C 10.78125 -13.054688 10.613281 -13.25 10.375 -13.25 C 10.21875 -13.25 10.078125 -13.195312 9.953125 -13.09375 C 9.972656 -12.914062 10.003906 -12.671875 10.046875 -12.359375 C 10.085938 -12.054688 10.109375 -11.40625 10.109375 -10.40625 L 10.109375 -9.40625 C 10.109375 -8.707031 10.09375 -8.203125 10.0625 -7.890625 C 10.03125 -7.578125 10.003906 -7.304688 9.984375 -7.078125 C 9.972656 -6.953125 9.960938 -6.828125 9.953125 -6.703125 C 10.078125 -6.609375 10.21875 -6.5625 10.375 -6.5625 C 10.613281 -6.5625 10.78125 -6.75 10.875 -7.125 C 10.96875 -7.507812 11.015625 -8.210938 11.015625 -9.234375 Z M 10.40625 0.484375 C 8.582031 0.484375 6.910156 0.105469 5.390625 -0.640625 C 3.878906 -1.390625 2.660156 -2.535156 1.734375 -4.078125 C 0.804688 -5.628906 0.34375 -7.5625 0.34375 -9.875 C 0.34375 -13.238281 1.351562 -15.863281 3.375 -17.75 C 5.164062 -19.414062 7.476562 -20.25 10.3125 -20.25 C 13.382812 -20.25 15.816406 -19.296875 17.609375 -17.390625 C 19.398438 -15.484375 20.296875 -12.976562 20.296875 -9.875 C 20.296875 -6.425781 19.335938 -3.789062 17.421875 -1.96875 C 15.671875 -0.332031 13.332031 0.484375 10.40625 0.484375 Z M 10.40625 0.484375 "/></g></g></g><g fill="#ffffff" fill-opacity="1"><g transform="translate(65.323265, 30.677084)"><g/></g></g><g fill="#ffffff" fill-opacity="1"><g transform="translate(64.7674, 30.68193)"><g><path d="M 10.078125 -9.9375 C 10.117188 -9.90625 10.238281 -9.878906 10.4375 -9.859375 C 10.632812 -9.835938 10.789062 -9.894531 10.90625 -10.03125 C 11.019531 -10.175781 11.09375 -10.421875 11.125 -10.765625 L 11.1875 -11.3125 C 11.21875 -11.6875 11.195312 -11.957031 11.125 -12.125 C 11.0625 -12.289062 10.925781 -12.382812 10.71875 -12.40625 C 10.519531 -12.425781 10.382812 -12.421875 10.3125 -12.390625 C 10.3125 -12.328125 10.304688 -12.234375 10.296875 -12.109375 Z M 17.609375 -5.6875 L 19.984375 -2.71875 C 19.640625 -1.144531 19.015625 0.0234375 18.109375 0.796875 C 17.203125 1.566406 16.023438 1.878906 14.578125 1.734375 C 13.492188 1.628906 12.578125 1.273438 11.828125 0.671875 C 10.867188 -0.0859375 10.207031 -1.195312 9.84375 -2.65625 L 9.453125 -4.203125 C 9.015625 -4.253906 8.484375 -4.363281 7.859375 -4.53125 C 7.765625 -4.457031 7.710938 -4.351562 7.703125 -4.21875 C 7.671875 -3.945312 8.054688 -3.742188 8.859375 -3.609375 L 9.515625 -1.328125 L 9.390625 -0.046875 C 8.140625 0.671875 6.597656 0.941406 4.765625 0.765625 C 3.453125 0.628906 2.429688 0.253906 1.703125 -0.359375 C 0.984375 -0.984375 0.671875 -1.804688 0.765625 -2.828125 L 2.21875 -17.3125 C 2.257812 -17.757812 2.710938 -18.148438 3.578125 -18.484375 C 4.441406 -18.828125 5.550781 -19.0625 6.90625 -19.1875 C 8.269531 -19.320312 9.617188 -19.320312 10.953125 -19.1875 C 14.003906 -18.882812 16.320312 -18.019531 17.90625 -16.59375 C 19.59375 -15.101562 20.316406 -13.171875 20.078125 -10.796875 C 19.941406 -9.429688 19.441406 -8.300781 18.578125 -7.40625 C 17.710938 -6.507812 16.675781 -5.9375 15.46875 -5.6875 C 15.4375 -5.351562 15.617188 -5.164062 16.015625 -5.125 C 16.410156 -5.082031 16.941406 -5.269531 17.609375 -5.6875 Z M 17.609375 -5.6875 "/></g></g></g><g fill="#ffffff" fill-opacity="1"><g transform="translate(83.975968, 32.600215)"><g/></g></g><g fill="#ffffff" fill-opacity="1"><g transform="translate(83.459865, 32.577195)"><g><path d="M 11 -18.015625 L 19.65625 -16.34375 C 19.863281 -15.8125 19.976562 -15.25 20 -14.65625 C 20.03125 -14.0625 20 -13.539062 19.90625 -13.09375 C 19.71875 -12.082031 19.378906 -11.351562 18.890625 -10.90625 C 18.398438 -10.46875 17.796875 -10.316406 17.078125 -10.453125 L 11.015625 -11.625 C 10.648438 -11.695312 10.4375 -11.585938 10.375 -11.296875 L 10.359375 -11.1875 C 10.347656 -11.125 10.351562 -11.078125 10.375 -11.046875 L 17.546875 -9.671875 C 17.671875 -9.328125 17.753906 -8.90625 17.796875 -8.40625 C 17.828125 -7.875 17.800781 -7.40625 17.71875 -7 C 17.488281 -5.800781 17.082031 -4.914062 16.5 -4.34375 L 13.25 -4.96875 C 11.726562 -5.257812 10.6875 -5.394531 10.125 -5.375 C 9.5625 -5.363281 9.203125 -5.332031 9.046875 -5.28125 C 8.890625 -5.207031 8.796875 -5.101562 8.765625 -4.96875 C 8.742188 -4.832031 8.800781 -4.710938 8.9375 -4.609375 C 9.488281 -4.679688 10.054688 -4.691406 10.640625 -4.640625 C 11.410156 -4.566406 12.238281 -4.441406 13.125 -4.265625 L 17.34375 -3.453125 C 17.789062 -2.484375 17.894531 -1.394531 17.65625 -0.1875 C 17.53125 0.496094 17.320312 1.140625 17.03125 1.734375 C 16.75 2.328125 16.394531 2.773438 15.96875 3.078125 L 4.703125 0.921875 C 3.460938 0.679688 2.523438 0.183594 1.890625 -0.5625 C 1.179688 -1.363281 0.945312 -2.382812 1.1875 -3.625 L 3.9375 -17.9375 C 4.019531 -18.414062 4.640625 -18.65625 5.796875 -18.65625 C 6.953125 -18.664062 8.6875 -18.453125 11 -18.015625 Z M 11 -18.015625 "/></g></g></g><g fill="#ffffff" fill-opacity="1"><g transform="translate(100.189255, 35.789987)"><g/></g></g></g></g></g></g></g></g></g></g></g></svg>