<?xml version="1.0" encoding="UTF-8"?>
<!DOCTYPE svg PUBLIC "-//W3C//DTD SVG 1.1//EN" "http://www.w3.org/Graphics/SVG/1.1/DTD/svg11.dtd">
<!-- Creator: CorelDRAW -->
<svg xmlns="http://www.w3.org/2000/svg" xml:space="preserve" width="50mm" height="50mm" version="1.1" style="shape-rendering:geometricPrecision; text-rendering:geometricPrecision; image-rendering:optimizeQuality; fill-rule:evenodd; clip-rule:evenodd"
viewBox="0 0 5000 5000"
 xmlns:xlink="http://www.w3.org/1999/xlink"
 xmlns:xodm="http://www.corel.com/coreldraw/odm/2003">
 <defs>
  <style type="text/css">
   <![CDATA[
    .fil0 {fill:black}
   ]]>
  </style>
 </defs>
 <g id="Layer_x0020_1">
  <metadata id="CorelCorpID_0Corel-Layer"/>
  <path class="fil0" d="M474.74 202.04l-1.47 123.41c-1.73,14.93 -7.46,37.83 -6.87,52.19 0.36,8.92 1.19,3.6 0.7,11.73 -0.87,14.41 -5.06,25.27 -5.06,41.29 0,16.3 2.09,16.58 0.34,32.04 -2.02,17.78 0.04,29.48 -2.72,45.91l-11.81 155.54c-5.25,31.41 -5.8,64.27 -11.28,94.69l-8.41 76.14c0,9.52 0.94,-0.85 1.07,6.29 0.14,7.66 -2.51,13.18 -2.14,31.73 0.05,2.19 -0.24,4.27 -0.83,8.58 -2.81,20.53 -0.31,43.38 -3.99,63.91 -1.24,6.91 -3.58,17.21 -3.94,23.38 -1.03,17.94 -5,37.09 -4.46,53.25 0.65,19.38 -4.76,39.82 -4.76,58.41l0.26 19.16c-3.86,32.94 -0.18,67.6 -0.26,99.39 -0.15,62.69 11.07,126.52 12.77,188.33 1.73,62.97 11.74,120.97 17.05,184.05 6.25,74.12 12.97,143.06 27.16,214.16 2.4,12 4.49,21 7.06,33.17 1.96,9.31 6.55,22.96 7.63,32.58 5.46,48.49 14.87,90.17 24.8,136.08 10.53,48.73 40.43,133.34 68.61,172.72 6.41,8.95 37.59,35.94 23.87,64.01 -0.21,0.43 -0.52,0.95 -0.73,1.38 -0.22,0.44 -0.49,0.98 -0.7,1.42l-7.32 18.09c-1.52,3.53 -3.04,6.93 -4.28,10.53 -14.59,42.19 -12,26.37 -28.83,62.2 -2.12,4.53 -2.1,6.49 -3.74,11.07 -13.9,38.74 -18.36,69.08 -29.28,106.2 -4.6,15.62 -8.58,31.41 -12.89,48.5l-16.5 102.04c0,7.41 2.47,1.26 0.28,12.82 -1.31,6.88 -2.4,8.67 -2.4,16.82 -6,-6.33 -14.71,-2.77 -23.71,-0.44 -25.02,6.49 -46.24,14.28 -68.77,26.5 -6.92,3.76 -12.11,8.46 -18.5,13.25 -30.32,22.72 -60,45.24 -84.39,74.37 -5.64,6.74 -9.19,9 -15.12,16.64l-41.11 54.15c-10.07,13.51 -19.41,20.71 -29.37,34.14 -13.72,18.53 -24.22,39.82 -35.17,60.08l-14.27 32.31c-1.06,2.88 -0.95,3.34 -2.01,6.46 -2.35,6.93 -0.3,1.2 -2.4,6.06 -3.39,7.87 -5.57,14.94 -8.38,23.37 -14.28,42.89 -23.3,83.16 -30.31,128.46 -2.33,15 0.58,13.73 -6.27,25.48 -11.31,19.4 -18.08,50.77 -17.31,75.5l-3 33.32c0,116.1 21.4,197.91 57.44,293.96 7.75,20.65 19.22,46.52 33.19,64.19 9.85,12.47 10.59,2.73 32.16,33.46 18.32,26.07 48.03,54 58.88,70.25 15.71,23.5 32.31,41.48 49.39,62.81 48.1,60.1 92.55,82.88 109.38,100.18 5.53,5.68 13.18,39.11 17,48.62 11.88,29.48 18.03,55.64 24.48,70.78 3.74,8.75 6.36,15.74 9.7,24.17 27.4,69.13 56.11,125.75 124.97,165.04 23.55,13.43 43.66,23 70.7,26.68 54.53,7.42 37.73,14.8 86.36,74.52 17.44,21.41 25.61,31.02 41.84,55.53 16.82,25.4 38.78,47.89 57.16,71.96 20.43,26.74 72.35,71.85 99.01,93.63 61.95,50.62 131.67,88.46 205.8,118.08 32.21,12.88 65.37,18.73 101.66,27.47 34.05,8.2 68.55,18.69 103.5,25.63 35.16,6.98 75.77,11.32 114.62,14.51 11,0.9 19.4,-0.34 30.42,1.33 9.34,1.42 20.64,1.64 30.28,0.32 18.17,-2.5 43.97,0.47 63.19,-2.43 56.81,-8.6 125.7,0.89 185.06,0.89 9.81,0 22.18,-0.67 31.69,0.06 8.48,0.65 19.48,4.26 27.58,6.29 112.67,28.18 176.67,61.83 275.89,111.49l305.7 145.19c25.03,10.18 12.19,18.51 59.82,18.51 37.46,0 27.91,-7.28 47.38,-16.12l261.67 -123.59c40.88,-20.45 189.69,-92.82 218.86,-102.92 45.39,-15.71 105.44,-39.03 153.71,-38.91 10.58,0.02 21.18,-0.04 31.77,0.01 14.16,0.08 20.15,-1.85 31.66,-2.2 44.75,-1.34 78.35,-1.33 122.92,0 11.26,0.34 15.94,2.29 29.54,2.22l152.25 -4.45c73.59,-6.83 142.87,-29.07 213.16,-45.1 20.71,-4.72 32.28,-8.44 50.87,-14.76 85.97,-29.21 176.29,-82.51 241.52,-145.86 6.23,-6.05 10.51,-8.19 16.99,-14.76l19.32 -18.79c0.32,-0.29 0.77,-0.72 1.1,-1.01 0.32,-0.3 0.77,-0.73 1.09,-1.02 36.37,-33.29 69.81,-75.94 97.13,-116.68 4.42,-6.6 7.75,-13.2 12.59,-19.17 19.43,-23.97 39.65,-46.25 56.84,-72.28 10.42,-15.77 16.69,-23.96 39.24,-26.39 22.54,-2.41 35.53,-3.2 52.63,-10.87 41.06,-18.43 79.73,-50.28 106.47,-86.17 26.71,-35.85 36.53,-66.1 53.17,-107.7l40.48 -120.41c3.08,-13.32 21.93,-22.82 32.24,-31.26 11.78,-9.63 24.06,-18.64 34.46,-29.04 5.02,-5.03 9.49,-10.77 15.25,-16.51 27.48,-27.39 52.8,-55.53 76.01,-86.99l27.81 -35.69c5.17,-6.19 10.49,-9.89 15.69,-16.07 5.46,-6.5 9.74,-12.2 14.84,-19.02 5.05,-6.77 8.74,-11.9 13.31,-18.44l15.78 -15.97c19.86,-12.03 27.97,-40.08 37.83,-59.56 11.37,-22.48 18.8,-46.5 25.92,-71.45 10.16,-35.55 18.74,-63.9 25.4,-103.73 11.66,-69.78 18.62,-163.85 -4.61,-230.67 -12.02,-34.55 -5.75,-4.7 -13.24,-50.27 -3.06,-18.62 -6.38,-37.91 -10.87,-54.75 -18.49,-69.4 -39.02,-130.28 -75.36,-182.9 -10.26,-14.86 -19.47,-20.97 -29.32,-34.18 -27.92,-37.47 -55.25,-73.39 -88.46,-106.29l-73.47 -55.66c-12.61,-7.53 -27.39,-14.89 -43.22,-20.28l-38.36 -10.73c-8.58,-1.31 -7.67,-0.62 -11.69,3.62 -8.01,-96.32 -19.48,-128.64 -40.2,-213.83 -8.5,-34.95 -16.22,-66.41 -31.06,-95.94 -7.73,-15.37 -14.89,-25.51 -20.57,-42.94 -15.48,-47.5 -24.65,-34.62 -9.59,-76.82 2.88,-8.07 0.81,-6.14 6.59,-12.46 18.56,-20.25 26.97,-31.9 38.91,-60.58 33.08,-79.43 55.9,-163.5 66.12,-251.42 3.45,-29.72 19.35,-94.24 25.79,-132.97 7.75,-46.63 11.1,-95.62 14.93,-143.83 1.81,-22.77 6,-47.62 8.16,-70.16 1.21,-12.64 2.81,-25.03 4.05,-36.18l10.35 -148.41c4.63,-35.66 5.94,-73.07 8.96,-109.58 1.05,-12.65 -0.98,-27.25 0.42,-39.79 2.56,-22.81 -0.16,-53.88 -0.39,-76.44 -0.67,-67.22 -11.26,-131.23 -14.72,-196.96 -0.49,-9.32 -1.92,-8.83 -2.19,-18.97l-3.83 -59.68c-5.51,-52.39 -8.2,-102.66 -16.35,-153l-9.46 -96.38c-0.57,-19.9 -0.16,-39.58 -3.27,-60.24 -4.1,-27.2 -0.73,-52.5 -3.13,-81.55l-6.41 -78.25c-3.92,-48.97 -6.29,-67.59 -6.17,-120.84 0.05,-25.49 -0.59,-52.61 -9.93,-74.75 -3.43,-8.12 -10.88,-20.57 -15.44,-26.9 -5.54,-7.7 -12.56,-15.85 -19.57,-22.77 -18.13,-17.87 -60.39,-38.78 -86.44,-40.56 -37.92,-2.6 -40.55,-8.6 -93.01,-8.6 -41.84,0 -84.61,14.89 -116.68,25.15l-55.6 16.37c-18.67,6.21 -34.28,12.17 -53.43,18.55 -18.63,6.21 -33.42,11.82 -50.99,18.86 -58.68,23.49 -116.98,47.82 -173.49,76.3l-165.83 86.07c-77.49,38.43 -150.52,85.55 -222.25,133.38 -21.42,14.27 -43.13,28.27 -62.88,45.08 -19.84,16.9 -78.38,51.21 -107.32,70.5l-63.55 44.4c-20.96,15.17 -42.21,29.31 -61.96,46.01 -6.58,5.56 -12.27,9.79 -18.14,15.72 -12.91,13.01 -43.49,41.2 -58.68,49.28 -65.42,34.78 -79.77,75.11 -112.86,103.05l-27.52 25.42c-30.23,25.27 -52.88,56.75 -71.34,91.64 -10.33,-0.23 -64.05,-13.85 -80.27,-17.11 -28.74,-5.76 -54.06,-9.44 -86.61,-12.88 -61.29,-6.47 -116.46,-16.57 -180.29,-16.57 -10.27,0 -13.82,2.67 -23.57,2.88 -6.85,0.15 -15.58,-2.88 -25.12,-2.88 -26.58,0 -66.43,1.78 -91.94,5.43l-88.34 11.15c-46.72,4.87 -84.27,10.78 -127.5,20.67 -12.21,2.8 -29.82,9.05 -41.5,9.31 -17.34,-32.78 -39.59,-66.35 -68.36,-90.39l-29.33 -25.72c-22.89,-18.26 -36.32,-45.18 -59.27,-63.5 -4.06,-3.24 -5.89,-5.64 -9.7,-9.35 -11.24,-10.95 -28.85,-21.23 -42.83,-29.14 -11.12,-6.3 -19.85,-15.5 -29.24,-23.69 -4.49,-3.91 -6.09,-4.35 -10.55,-8.5 -13.1,-12.19 -24.71,-22.04 -38.13,-33.83 -6.08,-5.35 -12.73,-9.79 -19.22,-14.66 -61.72,-46.29 -125.84,-90.2 -192.03,-129.73 -11.54,-6.89 -11.27,-6.82 -20.48,-15.51 -27.96,-26.41 -73.3,-51.78 -106.16,-73.76 -64.4,-43.1 -133.53,-81.47 -202.36,-117.29l-118.57 -61.36c-15.44,-7.73 -31.82,-16.97 -48.07,-23.9 -58.43,-24.94 -114.73,-53.35 -174.99,-74.81 -43.37,-15.44 -89.9,-35.09 -134.86,-45.06 -10.74,-2.38 -18.47,-5.31 -27.61,-8.39 -9.68,-3.26 -17.49,-4.95 -27.98,-8 -45.37,-13.18 -90.29,-11.14 -136.26,-2.23 -38.82,7.52 -44.13,1.87 -82.79,25.16 -33.75,20.33 -68.11,63.94 -68.11,105.47z"/>
 </g>
</svg>
