<?xml version="1.0" encoding="UTF-8"?>
<!DOCTYPE svg PUBLIC "-//W3C//DTD SVG 1.1//EN" "http://www.w3.org/Graphics/SVG/1.1/DTD/svg11.dtd">
<!-- Creator: CorelDRAW -->
<svg xmlns="http://www.w3.org/2000/svg" xml:space="preserve" width="50mm" height="50mm" version="1.1" style="shape-rendering:geometricPrecision; text-rendering:geometricPrecision; image-rendering:optimizeQuality; fill-rule:evenodd; clip-rule:evenodd"
viewBox="0 0 5000 5000"
 xmlns:xlink="http://www.w3.org/1999/xlink"
 xmlns:xodm="http://www.corel.com/coreldraw/odm/2003">
 <defs>
  <style type="text/css">
   <![CDATA[
    .fil0 {fill:black}
   ]]>
  </style>
 </defs>
 <g id="Layer_x0020_1">
  <metadata id="CorelCorpID_0Corel-Layer"/>
  <path class="fil0" d="M5.93 1694.88l0.28 21.75c-3.35,34.94 -0.2,32.92 -4.36,71.64 -1.26,11.77 1.88,13.1 1.03,22.48 -0.69,7.66 -2.67,19.38 -3.19,25.11 -1.08,11.82 1.62,11.46 0.49,21.81 -0.92,8.41 -2.94,16.71 -2.89,23.22 0.09,12.35 2.17,8.46 0.47,21.93 -2.62,20.75 -1.23,35.13 -2.71,55.82 -5.62,78.7 10.29,129.09 17.57,205.33 5.42,56.81 13.73,111.74 25.75,162.4 2.95,12.42 5.74,24.64 8.68,36.74 9.5,39.07 13.7,80.63 21.42,119.14 20.09,100.23 49.44,193.66 86.99,287.14 8.46,21.07 16.93,45.01 27.06,65.93l32.5 62.66c20.02,37.07 11.9,39.51 -2.68,86.77l-13.32 34.27c-1.5,3.76 -2.04,5.1 -3.09,7.73 -17.13,42.98 -31.81,94.25 -33.31,140.88 -0.19,6.1 -3.14,10.93 -3.14,19.46l0.03 23.77c-1.16,9.68 -0.99,16.47 -1.85,22.21 -1.2,7.94 -4.08,14.73 -4.24,23.02l-2.59 23.99c0,45.41 8.16,92.08 18.52,128.53 10.8,37.96 22.14,75.13 39.12,110.11l46.79 102.43c3.95,9.32 6.3,17.89 10.22,26.54l36.01 76.45c24.12,48.25 52.3,93.96 82.03,138.55 10.61,15.91 19.4,29.75 30.27,45.43 35.46,51.18 74.4,98.22 113.97,145.54 21.8,26.07 49.04,51.18 73.43,75.79 3.21,3.24 5.26,5.63 8.75,8.55l49.66 43.33c4.3,3.83 5.47,4.19 9.61,7.7l93.32 75.36c3.98,3.12 7.38,5 11.47,8l99.14 69.54c48.97,36.64 101.32,74.34 155.71,103.8 8,4.33 16.58,8.84 25.04,13.89 8.83,5.27 14.62,8.07 24.01,12.76 9.08,4.53 14.61,8.46 23.23,13.53 32.48,19.09 64.12,34.42 97.85,51.37 9.16,4.61 15.72,7.23 25.22,11.54 5.34,2.43 8.56,3.79 14.4,5.25 19.47,4.89 -2.13,-9.46 75.72,21.42 61.04,24.2 127.17,41.49 190.57,60.3 42.92,12.73 89.94,23.74 134,32.51 44.82,8.93 94.17,20.09 142.72,23.81 55.68,4.26 95.42,11.57 149.05,17.46 102.71,11.28 200.5,24.95 305,28.04 12.84,0.39 22.82,2.26 38.86,2.24 13.66,-0.02 27.55,-0.26 41.18,-0.09 13.43,0.17 22.61,2.29 38.83,2.25l131.09 -3.15c13.85,-2.07 89.79,4.15 112.97,3.81l177.73 -4.91 468.59 -50.44c49.81,-7.32 105.32,-17.82 153.73,-30.09 149.14,-37.79 185.02,-49.05 327.62,-100.75 11.42,-4.14 18.12,1.22 45.72,-10.34 56.01,-23.45 106.54,-55.95 159.82,-84.56 64.65,-34.71 126.59,-75.46 184.36,-120.57 6.17,-4.81 10.62,-8.85 16.68,-13.59 17.5,-13.67 37.37,-24.62 56.03,-36.97 33.04,-21.87 74.42,-53.59 103.93,-79.88 32.36,-28.84 65.6,-54.82 96.22,-85.44 10.98,-10.99 20.38,-20.38 31.36,-31.37 15.24,-15.24 30.51,-30.24 43.63,-47.2 5.16,-6.68 9.26,-9.61 14.22,-16.04 38.71,-50.23 67.54,-81.85 105.54,-138.85 63.19,-94.8 108.17,-170.75 150.91,-277.28 3.41,-8.49 4.78,-13.61 8.28,-21.99 15.2,-36.38 34.21,-66.67 48.04,-105.52 27.55,-77.35 53.87,-159.25 39.08,-245.07 -2.26,-13.11 -3.21,-29.87 -3.61,-46.13 -1.34,-54.56 -15.89,-114.11 -35.29,-163.67 -9.84,-25.14 -18.43,-45.93 -26.23,-73.25 -2.07,-7.22 -4.05,-11.48 -5.8,-18.23 -3.67,-14.14 11.14,-40.32 18.74,-52.83 44.19,-72.75 115.01,-281.88 131.96,-367.6 5.64,-28.49 11.69,-55.49 15.68,-83.8 12.43,-88.19 36.05,-153.28 45.58,-252.87 5.37,-56.09 20.89,-128.55 22.76,-177.73l-5.27 -92.39c-0.42,-7.63 0.19,-16.15 0.1,-23.88 -0.15,-11.67 -2.01,-12.74 -2.32,-23.63l-4.17 -119.1c-0.15,-11.66 -2,-12.75 -2.32,-23.63 -0.24,-7.83 0.37,-16.11 0.14,-23.94 -0.33,-10.87 -2.09,-11.93 -2.25,-23.7 -0.23,-16.97 -3.57,-30.44 -5.88,-43.86 -4.96,-28.78 -10.16,-55.07 -16.58,-82.9 -3.44,-14.91 -5.5,-26.24 -9.1,-40.64 -9.82,-39.25 -19.64,-78.52 -32.47,-116.75l-38.52 -112.87c-31.79,-82.96 -82.78,-196.21 -128.41,-271.66l-56.67 -92.55c-33.03,-49.73 -67.56,-99.04 -105.45,-145.42l-45.37 -54.11c-16.91,-17.72 -36.82,-49.78 -68.13,-81.09 -16.71,-16.72 -32.55,-33.9 -49.71,-49.77 -5.26,-4.87 -7.72,-5.6 -13.05,-10.74l-51.83 -47.65c-30.06,-27.98 -65.95,-52.68 -100.71,-74.47 -107.11,-67.17 -227.42,-117.1 -349.04,-150.52 -73.52,-20.2 -187.21,-34.52 -265.44,-28.43 -28.56,2.22 -62.39,4.66 -91.2,10.44 -109.92,22.06 -219.23,124.67 -280.46,216.94l-37.16 62.32c-8.24,16.03 -29.99,40.57 -41.56,57.93 -47.42,71.14 -89.42,145.31 -127.86,222.48 -3.39,6.8 -5.17,8.93 -8.65,15.14 -3.47,6.21 -5.44,10.8 -8.68,17.28 -15.63,31.29 -32.09,61.26 -45.6,92.8l-75.18 173.52c-1.26,2.9 -2.84,6.63 -3.7,9.28 -1.1,3.45 -1.36,5.2 -2.43,8.38l-9.99 28.94c-2.45,7.53 -3.53,13.67 -4.92,21.03 -5.83,30.95 -7.09,19.2 -51.83,6.04 -19.59,-5.77 -100.88,-28.96 -118.32,-26.92 -12.49,1.46 -13.32,-1.02 -24.41,-3.36 -15.33,-3.24 -36.01,-4.07 -52.48,-5.91l-110.27 -5.91c-6.29,-0.2 -18.53,2.78 -25.78,3.31 -50.92,3.71 -66.81,-6.45 -105.23,-1.42 -35.28,4.61 -76.17,2 -111.84,7.1l-51.25 2.64 -164.08 43.71c-5.09,0 -7.4,-20.87 -8.63,-25.98 -2.38,-9.92 -4.59,-17 -7.86,-26.75 -6.13,-18.28 -11.43,-33.87 -18.4,-50.8 -14.72,-35.73 -31.15,-65.71 -43.59,-96.98 -33.24,-83.48 -51.76,-112.7 -89.48,-189.49 -34.37,-69.97 -110.55,-208.24 -156.94,-260.45 -9.27,-10.44 -17.79,-30.66 -25.57,-43.64 -17.51,-29.22 -37.38,-55.58 -57.65,-82.92 -11.16,-15.05 -19.55,-23.72 -32.52,-36.68 -35.94,-35.95 -73.65,-66.32 -117.2,-92.58 -53.76,-32.42 -100.26,-42.06 -162.38,-47.39l-64.81 -4.53c-13.6,0 -17.98,2.32 -32.47,2.28 -11.71,-0.03 -19.77,1.4 -32.25,2.35 -154.65,11.84 -292.77,63.97 -428.36,131.76 -52.39,26.2 -104.29,57.38 -149.91,94.47 -7.16,5.82 -12.1,10.04 -19.05,15.54 -6.77,5.36 -12.51,9.65 -18.66,15.95l-55.51 50.46c-25.07,19.36 -55.56,53.61 -77.46,78.25 -3.84,4.32 -3.78,5.36 -7.62,9.67 -16.74,18.79 -30.15,40.17 -47.55,58.43 -22.75,23.89 -43.22,51.32 -62.94,77.62 -47.69,63.59 -102.38,139.97 -137.99,210.19l-25.28 46.1c-13.12,25.86 -36.63,67.61 -46.23,92.18l-21.12 48.08c-0.91,2.27 -2.24,4.77 -2.77,5.88l-33.15 81.46c-22.43,55.72 -38.36,114.38 -54.29,172.8 -9.92,36.42 -18.68,73.34 -26.77,113.8 -4.71,23.57 -15.66,65.56 -15.54,87.63l-2.66 30.41z"/>
 </g>
</svg>
